SplineFontDB: 3.2
FontName: BinaryQuill
FullName: BinaryQuill
FamilyName: BinaryQuill
Weight: Regular
Copyright: Copyright (c) 2021, BrickNumber5
FontLog: "000.000 | Init+AAoA-001.000 | ASCII Chars+AAoA-001.001 | Updated: Z z @ & $ a : ; /+AAoA-001.002 | Updated: +AD0A : ; ! +AH4A i j ,"
Version: 001.002
ItalicAngle: 0
UnderlinePosition: -102
UnderlineWidth: 51
Ascent: 640
Descent: 384
InvalidEm: 0
LayerCount: 2
Layer: 0 0 "Back" 1
Layer: 1 0 "Fore" 0
XUID: [1021 806 866069049 20571]
StyleMap: 0x0000
FSType: 0
OS2Version: 0
OS2_WeightWidthSlopeOnly: 0
OS2_UseTypoMetrics: 1
CreationTime: 1627358848
ModificationTime: 1627690730
OS2TypoAscent: 0
OS2TypoAOffset: 1
OS2TypoDescent: 0
OS2TypoDOffset: 1
OS2TypoLinegap: 92
OS2WinAscent: 0
OS2WinAOffset: 1
OS2WinDescent: 0
OS2WinDOffset: 1
HheadAscent: 0
HheadAOffset: 1
HheadDescent: 0
HheadDOffset: 1
MarkAttachClasses: 1
DEI: 91125
LangName: 1033
Encoding: ISO8859-1
UnicodeInterp: none
NameList: AGL For New Fonts
DisplaySize: -48
AntiAlias: 1
FitToEm: 0
WinInfo: 32 16 6
BeginPrivate: 0
EndPrivate
BeginChars: 256 95

StartChar: exclam
Encoding: 33 33 1
Width: 384
VWidth: 0
Flags: HW
LayerCount: 2
Fore
SplineSet
158.254882812 109.874023438 m 0
 183.854492188 131.935546875 204.703125 132.751953125 224.969726562 112.484375 c 0
 272.708984375 64.7451171875 205.576171875 -17.4130859375 151.272460938 22.294921875 c 0
 128.0625 39.2666015625 131.87890625 87.1435546875 158.254882812 109.874023438 c 0
158.73046875 598.884765625 m 0
 173.043945312 619.0546875 187.793945312 621.498046875 200.874023438 605.866210938 c 0
 209.17578125 595.9453125 214.173828125 506.569335938 218.140625 297.115234375 c 0
 219.93359375 202.47265625 214.318359375 182.302734375 186.181640625 182.302734375 c 0
 178.423828125 182.302734375 168.942382812 186.61328125 164.848632812 192 c 0
 160.7578125 197.3828125 155.0625 286.254882812 152.048828125 391.7578125 c 0
 147.283203125 558.545898438 148.1015625 583.908203125 158.73046875 598.884765625 c 0
EndSplineSet
EndChar

StartChar: quotedbl
Encoding: 34 34 2
Width: 384
VWidth: 0
Flags: HW
LayerCount: 2
Fore
SplineSet
69.32421875 596.557617188 m 0
 96.828125 629.490234375 127.5078125 601.211914062 140.020507812 531.393554688 c 0
 151.28125 468.557617188 142.583984375 438.302734375 113.260742188 438.302734375 c 0
 90.5048828125 438.302734375 77.576171875 457.697265625 77.576171875 491.830078125 c 0
 77.576171875 504.947265625 73.3447265625 531.393554688 68.2666015625 550.01171875 c 0
 60.861328125 577.1640625 61.078125 586.684570312 69.32421875 596.557617188 c 0
209.778320312 605.866210938 m 0
 214.5078125 611.583007812 225.745117188 616.727539062 233.502929688 616.727539062 c 0
 258.99609375 616.727539062 271.639648438 584.920898438 273.59375 515.87890625 c 0
 275.108398438 462.3515625 273.241210938 450.852539062 261.818359375 443.345703125 c 0
 252.013671875 436.90234375 244.36328125 436.858398438 234.278320312 443.185546875 c 0
 216.436523438 454.380859375 196.110351562 589.345703125 209.778320312 605.866210938 c 0
EndSplineSet
EndChar

StartChar: numbersign
Encoding: 35 35 3
Width: 384
VWidth: 0
Flags: HW
LayerCount: 2
Fore
SplineSet
117.139648438 505.40625 m 0
 122.15234375 511.462890625 135.7578125 515.580078125 146.618164062 514.327148438 c 0
 164.65234375 512.24609375 166.788085938 508.508789062 166.788085938 479.030273438 c 2
 166.788085938 446.060546875 l 1
 202.860351562 446.060546875 l 2
 238.545898438 446.060546875 239.0546875 446.415039062 250.181640625 479.030273438 c 0
 259.180664062 505.40625 265.463867188 512.463867188 281.599609375 514.318359375 c 0
 305.59375 517.076171875 322.061523438 492.606445312 315.006835938 464.678710938 c 0
 311.244140625 449.784179688 314.181640625 444.572265625 329.697265625 438.619140625 c 0
 370.274414062 423.048828125 362.278320312 382.870117188 317.28515625 376.24609375 c 0
 294.788085938 372.934570312 290.56640625 368.770507812 288.58203125 347.927734375 c 0
 286.586914062 326.981445312 289.634765625 322.327148438 309.915039062 315.345703125 c 0
 327.7578125 309.203125 333.576171875 302.430664062 333.576171875 287.805664062 c 0
 333.576171875 266.407226562 325.818359375 259.841796875 292.4609375 253.008789062 c 0
 272.890625 249.000976562 267.8515625 242.8125 260.790039062 214.109375 c 0
 251.055664062 174.545898438 232.528320312 158.559570312 211.782226562 171.82421875 c 0
 200.936523438 178.7578125 198.165039062 189.672851562 199.370117188 220.703125 c 2
 200.920898438 260.654296875 l 1
 168.33984375 258.327148438 l 2
 136.451171875 256.049804688 135.568359375 255.224609375 126.879882812 219.5390625 c 0
 115.358398438 172.217773438 111.401367188 166.788085938 88.4365234375 166.788085938 c 0
 63.6669921875 166.788085938 50.94140625 197.041992188 60.701171875 232.727539062 c 0
 67.06640625 256 66.0849609375 258.084960938 44.994140625 266.084960938 c 0
 26.3759765625 273.146484375 22.8984375 278.36328125 24.82421875 296.33984375 c 0
 26.748046875 314.295898438 32.1943359375 319.337890625 56.2421875 325.430664062 c 0
 81.8427734375 331.916015625 85.3330078125 335.453125 85.3330078125 354.909179688 c 0
 85.3330078125 367.321289062 82.271484375 375.146484375 78.3515625 372.751953125 c 0
 74.591796875 370.454101562 62.060546875 372.01953125 51.2001953125 376.14453125 c 0
 10.2783203125 391.68359375 31.8056640625 438.302734375 79.9033203125 438.302734375 c 0
 95.41796875 438.302734375 99.296875 442.958007812 103.17578125 466.23046875 c 0
 105.76171875 481.745117188 111.967773438 499.157226562 117.139648438 505.40625 c 0
224.825195312 366.157226562 m 0
 224.918945312 372.65625 212.557617188 376.2421875 190.060546875 376.2421875 c 0
 167.563476562 376.2421875 155.151367188 372.794921875 155.151367188 366.545898438 c 0
 155.151367188 361.374023438 152.979492188 348.703125 150.497070312 339.393554688 c 0
 146.15234375 323.103515625 148.169921875 321.939453125 180.751953125 321.939453125 c 0
 215.810546875 321.939453125 224.315429688 330.47265625 224.825195312 366.157226562 c 0
EndSplineSet
EndChar

StartChar: dollar
Encoding: 36 36 4
Width: 384
VWidth: 0
Flags: HW
LayerCount: 2
Fore
SplineSet
167.08984375 591.903320312 m 0
 171.28125 604.315429688 206.3359375 604.896484375 213.830078125 592.678710938 c 0
 217.01171875 587.490234375 221.771484375 572.896484375 224.58203125 559.708984375 c 0
 228.70703125 540.350585938 234.278320312 535.0625 255.224609375 530.625 c 0
 292.4609375 522.735351562 319.017578125 494.3671875 316.233398438 465.454101562 c 0
 313.39453125 435.975585938 287.37890625 430.584960938 258.327148438 453.455078125 c 0
 247.466796875 462.004882812 235.114257812 469.333007812 231.563476562 469.333007812 c 0
 227.946289062 469.333007812 225.14453125 438.690429688 225.357421875 401.454101562 c 2
 225.745117188 333.576171875 l 1
 256 319.612304688 l 2
 298.15234375 300.157226562 317.227539062 270.739257812 318.877929688 222.642578125 c 0
 320.555664062 173.76953125 293.526367188 115.165039062 259.103515625 93.03515625 c 0
 243.299804688 82.8759765625 232.661132812 68.2666015625 228.072265625 50.423828125 c 0
 222.487304688 28.703125 216.747070312 22.8076171875 199.370117188 20.9453125 c 0
 181.268554688 19.005859375 176.161132812 22.4970703125 168.727539062 41.890625 c 0
 162.780273438 57.40625 153.083007812 66.6572265625 139.63671875 69.6455078125 c 0
 109.381835938 76.369140625 62.060546875 118.58984375 62.060546875 138.860351562 c 0
 62.060546875 176.873046875 95.26171875 185.6328125 123.803710938 155.151367188 c 0
 133.973632812 144.291015625 144.865234375 135.7578125 148.557617188 135.7578125 c 0
 152.205078125 135.7578125 155.151367188 168.33984375 155.151367188 208.678710938 c 2
 155.151367188 281.599609375 l 1
 112.484375 301.810546875 l 2
 23.064453125 344.16796875 24.82421875 437.018554688 116.36328125 506.462890625 c 0
 138.860351562 523.529296875 153.479492188 541.633789062 157.478515625 557.381835938 c 0
 160.828125 570.569335938 165.251953125 586.459960938 167.08984375 591.903320312 c 0
152.436523438 363.0546875 m 0
 154.345703125 365.176757812 154.873046875 387.491210938 153.599609375 412.315429688 c 2
 151.272460938 457.697265625 l 1
 133.719726562 435.200195312 l 2
 111.930664062 407.272460938 111.483398438 379.008789062 132.654296875 367.80078125 c 0
 141.963867188 362.872070312 150.44140625 360.837890625 152.436523438 363.0546875 c 0
252.703125 232.727539062 m 0
 250.181640625 242.8125 243.18359375 252.424804688 236.606445312 254.8359375 c 0
 226.96484375 258.372070312 224.969726562 249.793945312 224.969726562 204.799804688 c 0
 224.969726562 173.76953125 227.961914062 152.325195312 231.951171875 154.763671875 c 0
 243.90625 162.069335938 257.551757812 213.333007812 252.703125 232.727539062 c 0
EndSplineSet
EndChar

StartChar: percent
Encoding: 37 37 5
Width: 384
VWidth: 0
Flags: HW
LayerCount: 2
Fore
SplineSet
242.8125 286.73046875 m 0
 284.703125 305.104492188 302.48828125 301.399414062 334.473632812 267.63671875 c 0
 361.81640625 238.775390625 364.606445312 231.951171875 364.606445312 193.939453125 c 0
 364.606445312 156.703125 361.68359375 148.9453125 338.302734375 124.12109375 c 0
 308.588867188 92.57421875 290.909179688 90.224609375 243.587890625 111.534179688 c 0
 204.877929688 128.966796875 188.94921875 164.4609375 197.206054688 214.884765625 c 0
 204.319335938 258.327148438 214.454101562 274.29296875 242.8125 286.73046875 c 0
294.717773438 213.333007812 m 0
 290.0625 221.866210938 281.018554688 228.848632812 274.618164062 228.848632812 c 0
 257.122070312 228.848632812 262.981445312 171.984375 280.82421875 168.622070312 c 0
 297.765625 165.4296875 306.142578125 192.387695312 294.717773438 213.333007812 c 0
269.576171875 514.327148438 m 0
 297.583984375 547.684570312 307.90234375 555.001953125 324.266601562 553.107421875 c 0
 359.284179688 549.052734375 355.303710938 518.206054688 312.755859375 463.903320312 c 0
 241.638671875 373.139648438 153.265625 238.431640625 124.961914062 177.6484375 c 0
 105.456054688 135.7578125 63.775390625 89.2119140625 45.76953125 89.2119140625 c 0
 38.27734375 89.2119140625 27.8515625 96.58203125 23.2724609375 105.115234375 c 0
 16.1611328125 118.368164062 18.6826171875 127.224609375 38.400390625 158.254882812 c 0
 51.2158203125 178.423828125 62.060546875 197.268554688 62.060546875 199.370117188 c 0
 62.060546875 206.700195312 140.528320312 340.557617188 154.375976562 356.848632812 c 0
 161.6796875 365.44140625 182.619140625 394.860351562 201.309570312 422.788085938 c 0
 219.999023438 450.71484375 250.456054688 491.555664062 269.576171875 514.327148438 c 0
85.3330078125 558.96875 m 0
 100.072265625 564.213867188 116.740234375 568.943359375 121.793945312 569.314453125 c 0
 139.544921875 570.620117188 178.166015625 529.842773438 187.098632812 500.36328125 c 0
 195.41796875 472.91015625 194.372070312 466.23046875 175.80078125 428.217773438 c 0
 153.819335938 383.224609375 132.26171875 368.484375 88.4365234375 368.484375 c 0
 50.423828125 368.484375 33.67578125 379.275390625 23.412109375 410.375976562 c 0
 4.724609375 467.005859375 35.6845703125 541.302734375 85.3330078125 558.96875 c 0
123.001953125 481.745117188 m 0
 119.19921875 501.915039062 103.741210938 504.408203125 94.146484375 486.400390625 c 0
 83.8134765625 467.005859375 83.125 430.545898438 93.0908203125 430.545898438 c 0
 104.48046875 430.545898438 125.78125 467.005859375 123.001953125 481.745117188 c 0
EndSplineSet
EndChar

StartChar: ampersand
Encoding: 38 38 6
Width: 384
VWidth: 0
Flags: HW
LayerCount: 2
Fore
SplineSet
79.9033203125 562.892578125 m 0
 121.018554688 588.080078125 160.846679688 583.3984375 200.920898438 548.666992188 c 0
 227.607421875 525.540039062 235.521484375 512.775390625 240.491210938 484.848632812 c 0
 248.108398438 442.046875 236.870117188 411.927734375 194.46875 361.502929688 c 0
 167.72265625 329.697265625 165.428710938 323.709960938 173.37109375 306.423828125 c 0
 188.341796875 273.842773438 249.852539062 182.302734375 256.775390625 182.302734375 c 0
 260.1484375 182.302734375 267.618164062 198.59375 273.138671875 217.98828125 c 0
 285.061523438 259.87890625 303.043945312 276.018554688 323.491210938 263.180664062 c 0
 344.709960938 249.856445312 344.259765625 210.23046875 322.341796875 162.133789062 c 2
 302.545898438 118.690429688 l 1
 329.958007812 85.3330078125 l 2
 358.645507812 50.423828125 362.5859375 35.9921875 347.5390625 20.9453125 c 0
 329.6484375 3.0546875 305.372070312 10.8603515625 279.989257812 42.6669921875 c 2
 255.224609375 73.697265625 l 1
 223.030273438 52.36328125 l 2
 195.946289062 34.4169921875 183.079101562 31.1767578125 141.963867188 31.9521484375 c 0
 86.884765625 32.9912109375 58.0986328125 48.7109375 31.4267578125 92.3154296875 c 0
 2.5341796875 139.547851562 16.1591796875 231.951171875 61.2802734375 294.788085938 c 2
 83.005859375 325.041992188 l 1
 64.091796875 367.708984375 l 2
 41.7392578125 418.133789062 32.0556640625 504.862304688 45.9033203125 530.618164062 c 0
 51.064453125 540.217773438 65.939453125 554.337890625 79.9033203125 562.892578125 c 0
162.850585938 494.93359375 m 0
 144.5234375 518.206054688 133.919921875 520.389648438 112.484375 505.305664062 c 0
 98.7451171875 495.63671875 98.44140625 491.830078125 108.014648438 449.1640625 c 0
 123.852539062 378.569335938 126.7265625 376.458007812 154.470703125 415.030273438 c 0
 182.928710938 454.59375 184.302734375 467.692382812 162.850585938 494.93359375 c 0
144.678710938 226.909179688 m 0
 133.553710938 244.751953125 120.91796875 259.87890625 117.139648438 259.87890625 c 0
 108.206054688 259.87890625 87.7275390625 203.248046875 82.3544921875 163.684570312 c 0
 79.0888671875 139.63671875 81.78125 130.776367188 96.9697265625 115.587890625 c 0
 119.854492188 92.703125 168.33984375 90.5283203125 193.939453125 111.23828125 c 2
 211.782226562 125.672851562 l 1
 188.508789062 159.805664062 l 2
 175.814453125 178.423828125 155.891601562 208.92578125 144.678710938 226.909179688 c 0
EndSplineSet
EndChar

StartChar: quotesingle
Encoding: 39 39 7
Width: 384
VWidth: 0
Flags: HW
LayerCount: 2
Fore
SplineSet
124.8203125 602.763671875 m 0
 134.775390625 621.295898438 156.895507812 620.606445312 174.590820312 601.211914062 c 0
 192.286132812 581.818359375 200.916015625 483.516601562 186.440429688 466.23046875 c 0
 172.013671875 449.001953125 149.124023438 451.491210938 136.5 471.66015625 c 0
 122.904296875 493.381835938 114.818359375 584.145507812 124.8203125 602.763671875 c 0
EndSplineSet
EndChar

StartChar: parenleft
Encoding: 40 40 8
Width: 384
VWidth: 0
Flags: HW
LayerCount: 2
Fore
SplineSet
181.52734375 602.522460938 m 0
 216.436523438 628.203125 219.830078125 628.848632812 235.830078125 612.848632812 c 0
 256.565429688 592.11328125 249.793945312 577.943359375 194.71484375 526.819335938 c 0
 126.822265625 463.80078125 109.381835938 425.890625 109.381835938 341.333007812 c 0
 109.381835938 307.200195312 112.81640625 259.375 117.013671875 235.0546875 c 0
 127.0546875 176.873046875 167.453125 105.874023438 204.024414062 82.134765625 c 0
 238.93359375 59.474609375 243.1953125 30.7744140625 213.333007812 19.447265625 c 0
 175.961914062 5.271484375 133.939453125 38.01171875 92.9228515625 113.260742188 c 0
 54.126953125 184.43359375 52.609375 190.8359375 48.591796875 300.217773438 c 0
 43.6640625 434.423828125 54.3720703125 474.368164062 112.231445312 537.599609375 c 0
 133.526367188 560.873046875 165.024414062 590.3828125 181.52734375 602.522460938 c 0
EndSplineSet
EndChar

StartChar: parenright
Encoding: 41 41 9
Width: 384
VWidth: 0
Flags: HW
LayerCount: 2
Fore
SplineSet
121.018554688 614.776367188 m 0
 138.90625 627.8828125 152.048828125 627.478515625 195.491210938 612.484375 c 0
 215.66015625 605.5234375 244.3203125 586.188476562 263.370117188 566.690429688 c 0
 292.137695312 537.24609375 299.20703125 522.860351562 318.8359375 453.818359375 c 2
 341.333007812 374.690429688 l 1
 330.000976562 278.497070312 l 2
 313.368164062 137.309570312 298.763671875 82.0439453125 270.345703125 52.751953125 c 0
 238.736328125 20.169921875 185.40625 -0.5986328125 163.684570312 11.21484375 c 0
 139.864257812 24.1689453125 143.515625 49.2255859375 171.442382812 64.4580078125 c 0
 234.046875 98.6064453125 249.6640625 137.309570312 264.385742188 294.788085938 c 0
 271.7109375 373.139648438 270.987304688 383.84375 254.52734375 440.629882812 c 0
 235.189453125 507.345703125 207.927734375 543.610351562 171.442382812 551.153320312 c 0
 117.915039062 562.21875 92.703125 594.030273438 121.018554688 614.776367188 c 0
EndSplineSet
EndChar

StartChar: asterisk
Encoding: 42 42 10
Width: 384
VWidth: 0
Flags: HW
LayerCount: 2
Fore
SplineSet
151.66015625 482.133789062 m 0
 159.41796875 487.793945312 168.86328125 492.606445312 172.217773438 492.606445312 c 0
 187.112304688 492.606445312 209.454101562 460.024414062 209.454101562 438.302734375 c 0
 209.454101562 425.115234375 212.311523438 415.030273438 216.048828125 415.030273438 c 0
 219.692382812 415.030273438 235.830078125 425.546875 252.12109375 438.5390625 c 0
 284.703125 464.521484375 283.473632812 464.147460938 302.545898438 453.895507812 c 0
 324.611328125 442.03515625 321.939453125 411.630859375 297.115234375 392.106445312 c 2
 276.9453125 376.2421875 l 1
 295.563476562 376.2421875 l 2
 318.060546875 376.2421875 333.576171875 363.260742188 333.576171875 344.436523438 c 0
 333.576171875 325.57421875 314.958007812 313.194335938 279.272460938 308.328125 c 2
 248.2421875 304.096679688 l 1
 283.5390625 265.309570312 l 2
 311.77734375 234.278320312 318.37109375 221.711914062 316.508789062 202.47265625 c 0
 314.631835938 183.079101562 310.353515625 177.973632812 294.400390625 176.096679688 c 0
 278.748046875 174.255859375 269.354492188 181.139648438 249.40625 209.06640625 c 0
 235.553710938 228.4609375 221.047851562 244.36328125 217.211914062 244.36328125 c 0
 213.383789062 244.36328125 209.158203125 233.502929688 207.856445312 220.315429688 c 0
 202.466796875 165.715820312 153.111328125 172.217773438 148.974609375 228.072265625 c 0
 147.65234375 245.915039062 144.063476562 259.87890625 140.799804688 259.87890625 c 0
 137.502929688 259.87890625 125.27734375 249.793945312 112.586914062 236.606445312 c 0
 84.220703125 207.126953125 51.75390625 206.3515625 47.6533203125 235.0546875 c 0
 45.814453125 247.926757812 54.2119140625 263.370117188 74.8603515625 285.090820312 c 0
 94.0341796875 305.260742188 99.4501953125 314.704101562 89.98828125 311.466796875 c 0
 81.3896484375 308.525390625 67.4912109375 311.454101562 56.6298828125 318.495117188 c 0
 29.9931640625 335.765625 34.9091796875 361.918945312 66.71484375 372.141601562 c 2
 91.5390625 380.12109375 l 1
 68.669921875 405.721679688 l 2
 43.0283203125 434.423828125 41.8720703125 440.569335938 58.9580078125 457.337890625 c 0
 76.86328125 474.912109375 89.2119140625 472.025390625 119.466796875 443.1953125 c 2
 147.393554688 416.58203125 l 1
 142.3515625 444.12109375 l 2
 138.374023438 465.842773438 140.340820312 473.873046875 151.66015625 482.133789062 c 0
EndSplineSet
EndChar

StartChar: plus
Encoding: 43 43 11
Width: 384
VWidth: 0
Flags: HW
LayerCount: 2
Fore
SplineSet
156.703125 467.782226562 m 0
 161.939453125 473.018554688 171.442382812 477.090820312 178.423828125 477.090820312 c 0
 200.3046875 477.090820312 209.454101562 459.248046875 209.454101562 416.58203125 c 2
 209.454101562 375.466796875 l 1
 266.860351562 376.817382812 l 2
 332.024414062 378.350585938 341.333007812 374.884765625 341.333007812 349.090820312 c 0
 341.333007812 324.981445312 319.612304688 313.697265625 262.981445312 308.387695312 c 2
 217.211914062 304.096679688 l 1
 217.211914062 274.618164062 l 2
 217.211914062 228.848632812 205.4453125 205.576171875 182.302734375 205.576171875 c 0
 159.571289062 205.576171875 147.393554688 228.848632812 147.393554688 272.291015625 c 2
 147.393554688 298.666992188 l 1
 105.502929688 298.666992188 l 2
 49.6484375 298.666992188 38.7880859375 303.717773438 38.7880859375 329.697265625 c 0
 38.7880859375 354.376953125 46.5458984375 358.56640625 105.502929688 365.725585938 c 2
 147.393554688 370.8125 l 1
 147.393554688 414.642578125 l 2
 147.393554688 438.690429688 151.595703125 462.673828125 156.703125 467.782226562 c 0
EndSplineSet
EndChar

StartChar: comma
Encoding: 44 44 12
Width: 384
VWidth: 0
Flags: HW
LayerCount: 2
Fore
SplineSet
144.216796875 97.7451171875 m 0
 154.5234375 109.13671875 166.400390625 112.641601562 188.896484375 110.93359375 c 0
 215.272460938 108.9296875 221.645507812 104.555664062 234.666992188 79.515625 c 0
 245.923828125 57.8662109375 248.541015625 41.890625 244.897460938 17.06640625 c 0
 235.559570312 -46.5458984375 188.278320312 -99.0712890625 155.927734375 -81.7724609375 c 0
 136.533203125 -71.40234375 134.41796875 -41.380859375 152.048828125 -26.7333984375 c 0
 158.512695312 -21.36328125 166.959960938 -10.8603515625 171.0546875 -3.103515625 c 0
 176.844726562 7.8681640625 173.76953125 13.05078125 156.703125 21.08203125 c 0
 129.551757812 33.859375 122.970703125 74.2626953125 144.216796875 97.7451171875 c 0
EndSplineSet
EndChar

StartChar: hyphen
Encoding: 45 45 13
Width: 384
VWidth: 0
Flags: HW
LayerCount: 2
Fore
SplineSet
48.0966796875 364.646484375 m 0
 63.568359375 376.046875 80.6787109375 377.124023438 176.873046875 372.751953125 c 0
 238.157226562 369.965820312 296.486328125 364.416992188 307.200195312 360.352539062 c 0
 333.576171875 350.348632812 333.576171875 316.73046875 307.200195312 306.682617188 c 0
 284.703125 298.112304688 63.625 305.338867188 44.2177734375 315.279296875 c 0
 25.2490234375 324.995117188 27.1513671875 349.213867188 48.0966796875 364.646484375 c 0
EndSplineSet
EndChar

StartChar: period
Encoding: 46 46 14
Width: 384
VWidth: 0
Flags: HW
LayerCount: 2
Fore
SplineSet
142.739257812 100.848632812 m 0
 164.266601562 122.375976562 168.33984375 123.256835938 197.041992188 112.595703125 c 0
 224.969726562 102.22265625 235.793945312 71.3701171875 221.302734375 43.4423828125 c 0
 208.400390625 18.576171875 195.491210938 11.63671875 162.133789062 11.63671875 c 0
 121.793945312 11.63671875 109.603515625 67.712890625 142.739257812 100.848632812 c 0
EndSplineSet
EndChar

StartChar: slash
Encoding: 47 47 15
Width: 384
VWidth: 0
Flags: HW
LayerCount: 2
Fore
SplineSet
281.983398438 588.024414062 m 0
 296.033203125 603.5390625 313.322265625 616.727539062 319.612304688 616.727539062 c 0
 347.5390625 616.727539062 359.443359375 573.146484375 336.678710938 554.244140625 c 0
 330.33203125 548.973632812 312.171875 521.309570312 296.727539062 493.381835938 c 0
 281.282226562 465.454101562 258.004882812 426.666992188 245.515625 408.048828125 c 0
 217.94921875 366.955078125 142.9609375 209.454101562 108.487304688 120.2421875 c 0
 94.3974609375 83.7822265625 77.7392578125 48.060546875 71.224609375 40.33984375 c 0
 55.01171875 21.1240234375 32.541015625 23.2724609375 22.5380859375 44.994140625 c 0
 15.416015625 60.458984375 20.5654296875 79.9033203125 52.9462890625 159.805664062 c 0
 117.708007812 319.612304688 231.38671875 532.150390625 281.983398438 588.024414062 c 0
EndSplineSet
EndChar

StartChar: zero
Encoding: 48 48 16
Width: 384
VWidth: 0
Flags: HW
LayerCount: 2
Fore
SplineSet
161.357421875 611.211914062 m 0
 225.745117188 620.326171875 287.123046875 597.649414062 320.703125 552.33984375 c 0
 366.313476562 490.795898438 376.336914062 426.666992188 365.8046875 263.7578125 c 0
 357.178710938 130.327148438 340.999023438 76.0654296875 297.115234375 33.400390625 c 0
 272.638671875 9.603515625 267.248046875 7.78515625 222.254882812 8.1455078125 c 0
 195.87890625 8.3564453125 151.66015625 13.30859375 125.28515625 19.005859375 c 0
 85.7216796875 27.5517578125 73.0888671875 34.33203125 56.6298828125 55.8544921875 c 0
 25.7822265625 96.1943359375 16.177734375 133.430664062 15.8115234375 214.109375 c 0
 15.455078125 292.4609375 40.8251953125 498.633789062 53.8046875 522.860351562 c 0
 67.9345703125 549.236328125 139.63671875 608.137695312 161.357421875 611.211914062 c 0
252.12109375 527.771484375 m 0
 207.115234375 562.319335938 144.411132812 547.684570312 118.065429688 496.484375 c 0
 111.155273438 483.055664062 85.3330078125 322.71484375 85.3330078125 293.236328125 c 0
 85.3330078125 275.540039062 95.41796875 281.666992188 167.563476562 343.192382812 c 0
 206.3515625 376.26953125 251.439453125 414.0546875 267.63671875 427.0546875 c 0
 296.33984375 450.092773438 296.860351562 451.470703125 287.41796875 479.41796875 c 0
 282.176757812 494.93359375 265.958984375 517.150390625 252.12109375 527.771484375 c 0
295.951171875 231.951171875 m 0
 300.0078125 278.497070312 302.275390625 328.889648438 300.994140625 344.048828125 c 2
 298.666992188 371.587890625 l 1
 242.036132812 321.551757812 l 2
 211.005859375 294.134765625 174.184570312 263.44921875 160.58203125 253.672851562 c 0
 146.86328125 243.8125 122.569335938 223.091796875 106.278320312 207.356445312 c 0
 74.6357421875 176.791992188 73.0966796875 159.030273438 97.9208984375 110.93359375 c 0
 109.48046875 88.53515625 158.254882812 73.697265625 220.315429688 73.697265625 c 0
 251.868164062 73.697265625 253.459960938 74.8603515625 270.739257812 110.545898438 c 0
 283.670898438 137.251953125 290.610351562 170.666992188 295.951171875 231.951171875 c 0
EndSplineSet
EndChar

StartChar: one
Encoding: 49 49 17
Width: 384
VWidth: 0
Flags: HW
LayerCount: 2
Fore
SplineSet
164.237304688 595.005859375 m 0
 172.984375 612.072265625 206.482421875 613.08203125 215.7109375 596.557617188 c 0
 219.56640625 589.653320312 220.920898438 470.884765625 218.763671875 328.920898438 c 2
 214.884765625 73.697265625 l 1
 241.260742188 73.697265625 l 2
 256 73.697265625 278.930664062 76.896484375 293.236328125 80.9501953125 c 0
 331.248046875 91.720703125 358.432617188 79.064453125 355.47265625 51.9755859375 c 0
 351.67578125 17.21875 312.629882812 8.28515625 172.994140625 10.224609375 c 0
 38.01171875 12.099609375 15.515625 17.2880859375 15.515625 46.5458984375 c 0
 15.515625 72.8662109375 43.4423828125 83.6904296875 102.400390625 80.22265625 c 2
 147.393554688 77.576171875 l 1
 147.393554688 256.775390625 l 1
 147.393554688 435.975585938 l 1
 103.951171875 414.110351562 l 2
 54.302734375 389.122070312 28.470703125 392.712890625 24.7890625 425.115234375 c 0
 22.853515625 442.147460938 27.927734375 447.853515625 57.40625 461.795898438 c 0
 98.521484375 481.2421875 144.513671875 528.9609375 152.151367188 560.096679688 c 0
 155.004882812 571.733398438 160.6171875 587.94140625 164.237304688 595.005859375 c 0
EndSplineSet
EndChar

StartChar: two
Encoding: 50 50 18
Width: 384
VWidth: 0
Flags: HW
LayerCount: 2
Fore
SplineSet
135.7578125 588.559570312 m 0
 151.421875 597.076171875 172.217773438 600.32421875 199.370117188 598.497070312 c 0
 231.951171875 596.303710938 246.422851562 590.311523438 274.618164062 567.336914062 c 0
 330.47265625 521.826171875 344.013671875 497.880859375 342.321289062 447.612304688 c 0
 340.063476562 380.510742188 300.1015625 303.321289062 217.018554688 205.576171875 c 0
 197.236328125 182.302734375 171.407226562 147.922851562 160.194335938 129.939453125 c 2
 139.63671875 96.9697265625 l 1
 169.115234375 100.68359375 l 2
 304.873046875 117.787109375 335.791015625 112.22265625 332 71.3701171875 c 2
 329.697265625 46.5458984375 l 1
 193.939453125 34.1337890625 l 2
 78.3515625 23.5654296875 55.53125 23.3193359375 40.33984375 32.4794921875 c 0
 16.419921875 46.9013671875 18.6181640625 66.0947265625 47.3212890625 93.447265625 c 0
 60.4677734375 105.974609375 90.3603515625 142.739257812 113.260742188 174.545898438 c 0
 136.161132812 206.3515625 171.103515625 252.069335938 190.340820312 275.393554688 c 0
 233.846679688 328.145507812 279.272460938 416.508789062 279.272460938 448.387695312 c 0
 279.272460938 482.973632812 230.400390625 531.393554688 195.491210938 531.393554688 c 0
 158.254882812 531.393554688 130.8046875 514.571289062 108.151367188 477.866210938 c 0
 85.6484375 441.40625 74.5380859375 434.994140625 53.52734375 446.33984375 c 0
 15.423828125 466.915039062 62.8359375 548.916015625 135.7578125 588.559570312 c 0
EndSplineSet
EndChar

StartChar: three
Encoding: 51 51 19
Width: 384
VWidth: 0
Flags: HW
LayerCount: 2
Fore
SplineSet
133.430664062 603.481445312 m 0
 164.4609375 618.829101562 218.458984375 620.487304688 242.8125 606.838867188 c 0
 294.01171875 578.143554688 335.490234375 518.361328125 334.986328125 473.98828125 c 0
 334.677734375 446.8359375 315.619140625 389.430664062 297.899414062 362.278320312 c 0
 287.150390625 345.80859375 287.725585938 341.333007812 305.375 304.096679688 c 0
 328.908203125 254.448242188 338.15234375 171.127929688 324.998046875 127.224609375 c 0
 303.493164062 55.4443359375 246.690429688 18.9208984375 157.478515625 19.51171875 c 0
 103.951171875 19.8662109375 58.181640625 51.994140625 58.181640625 89.2119140625 c 0
 58.181640625 111.708984375 61.306640625 116.829101562 76.412109375 119.079101562 c 0
 87.2724609375 120.696289062 101.541992188 115.231445312 111.708984375 105.559570312 c 0
 131.657226562 86.5849609375 195.491210938 81.158203125 223.41796875 96.0634765625 c 0
 260.55859375 115.884765625 275.389648438 196.266601562 253.645507812 259.87890625 c 0
 244.36328125 287.030273438 244.36328125 287.030273438 197.818359375 287.030273438 c 2
 151.272460938 287.030273438 l 1
 151.272460938 313.793945312 l 2
 151.272460938 338.918945312 153.599609375 341.391601562 189.28515625 354.184570312 c 0
 232.354492188 369.625 234.096679688 371.587890625 256.364257812 429.76953125 c 0
 275.662109375 480.194335938 269.004882812 505.33984375 228.072265625 536.641601562 c 0
 204.997070312 554.288085938 199.7578125 555.30078125 174.93359375 546.909179688 c 0
 159.594726562 541.724609375 136.395507812 524.024414062 122.569335938 506.958007812 c 0
 103.715820312 483.684570312 92.98828125 476.875 77.9638671875 478.642578125 c 0
 62.1376953125 480.50390625 57.73828125 485.624023438 55.9658203125 504.2421875 c 0
 53.32421875 531.973632812 93.8662109375 583.912109375 133.430664062 603.481445312 c 0
EndSplineSet
EndChar

StartChar: four
Encoding: 52 52 20
Width: 384
VWidth: 0
Flags: HW
LayerCount: 2
Fore
SplineSet
243.938476562 583.370117188 m 0
 259.740234375 605.866210938 291.228515625 606.279296875 303.09765625 584.145507812 c 0
 314.330078125 563.200195312 314.540039062 43.80078125 303.321289062 32.58203125 c 0
 290.756835938 20.0166015625 260.266601562 30.2548828125 250.181640625 50.423828125 c 0
 243.6328125 63.5234375 240.484375 108.217773438 240.484375 188.12109375 c 2
 240.484375 306.423828125 l 1
 176.484375 307.200195312 l 2
 141.576171875 307.623046875 102.963867188 307.3671875 91.5390625 306.63671875 c 0
 40.33984375 303.36328125 19.9755859375 346.903320312 60.5087890625 372.983398438 c 0
 114.036132812 407.422851562 160.9765625 454.59375 194.985351562 508.12109375 c 0
 215.193359375 539.927734375 237.385742188 574.040039062 243.938476562 583.370117188 c 0
245.139648438 387.103515625 m 0
 247.279296875 393.094726562 247.974609375 413.090820312 246.690429688 431.708984375 c 0
 244.872070312 458.084960938 242.669921875 462.659179688 236.606445312 452.654296875 c 0
 232.25390625 445.473632812 215.90625 425.890625 199.370117188 408.048828125 c 2
 169.890625 376.2421875 l 1
 205.576171875 376.2421875 l 2
 228.848632812 376.2421875 242.609375 380.020507812 245.139648438 387.103515625 c 0
EndSplineSet
EndChar

StartChar: five
Encoding: 53 53 21
Width: 384
VWidth: 0
Flags: HW
LayerCount: 2
Fore
SplineSet
263.7578125 595.870117188 m 0
 299.442382812 611.279296875 307.126953125 611.370117188 321.939453125 596.557617188 c 0
 339.276367188 579.220703125 336.678710938 565.846679688 312.629882812 548.635742188 c 0
 281.02734375 526.017578125 236.606445312 515.87890625 169.115234375 515.87890625 c 2
 108.606445312 515.87890625 l 1
 108.606445312 451.491210938 l 1
 108.606445312 387.103515625 l 1
 145.06640625 387.55859375 l 2
 201.697265625 388.266601562 253.16015625 358.72265625 290.44921875 304.096679688 c 0
 319.842773438 261.038085938 321.297851562 256 324.287109375 186.958007812 c 0
 327.947265625 102.400390625 317.672851562 72.228515625 275.393554688 43.3818359375 c 0
 215.66015625 2.6259765625 148.642578125 5.7939453125 96.1943359375 51.8515625 c 0
 45.64453125 96.2421875 76.7998046875 144.091796875 131.103515625 105.466796875 c 0
 180.751953125 70.15234375 231.856445312 75.0947265625 251.797851562 117.139648438 c 0
 267.711914062 150.692382812 262.73828125 217.211914062 241.125 259.87890625 c 0
 214.404296875 312.629882812 153.403320312 335.822265625 108.606445312 310.26171875 c 0
 79.9033203125 293.884765625 54.82421875 295.822265625 47.8388671875 314.958007812 c 0
 44.5478515625 323.971679688 42.048828125 383.224609375 42.244140625 447.612304688 c 0
 42.6806640625 591.126953125 38.896484375 586.517578125 155.151367188 585.123046875 c 0
 213.333007812 584.424804688 244.36328125 587.495117188 263.7578125 595.870117188 c 0
EndSplineSet
EndChar

StartChar: six
Encoding: 54 54 22
Width: 384
VWidth: 0
Flags: HW
LayerCount: 2
Fore
SplineSet
134.981445312 602.041015625 m 0
 180.751953125 622.958007812 215.96875 620.788085938 256.775390625 594.537109375 c 0
 302.545898438 565.092773438 319.922851562 544.142578125 316.872070312 522.084960938 c 0
 313.07421875 494.623046875 287.030273438 496.337890625 241.260742188 527.064453125 c 0
 218.763671875 542.16796875 195.75390625 554.666992188 190.448242188 554.666992188 c 0
 185.159179688 554.666992188 169.115234375 546.619140625 155.151367188 536.961914062 c 0
 121.935546875 513.990234375 93.4521484375 445.28515625 87.5556640625 373.915039062 c 2
 83.005859375 318.8359375 l 1
 108.217773438 342.497070312 l 2
 122.224609375 355.641601562 155.151367188 373.915039062 182.302734375 383.612304688 c 2
 231.17578125 401.06640625 l 1
 264.533203125 385.994140625 l 2
 321.763671875 360.134765625 336.73828125 337.454101562 340.120117188 271.515625 c 0
 344.336914062 189.28515625 320.623046875 114.477539062 275.198242188 66.71484375 c 2
 241.260742188 31.0302734375 l 1
 184.2421875 31.41796875 l 2
 139.248046875 31.724609375 121.334960938 35.4677734375 99.296875 49.1708984375 c 0
 41.0771484375 85.3720703125 10.55078125 196.266601562 17.8037109375 345.211914062 c 0
 24.1494140625 475.5390625 67.873046875 571.37109375 134.981445312 602.041015625 c 0
269.298828125 308.751953125 m 0
 242.384765625 344.79296875 162.580078125 321.939453125 131.142578125 269.1875 c 0
 121.895507812 253.672851562 107.0859375 234.959960938 98.9091796875 228.4609375 c 0
 84.341796875 216.881835938 84.2451171875 214.884765625 96.294921875 174.545898438 c 0
 113.905273438 115.587890625 133.616210938 96.9697265625 178.423828125 96.9697265625 c 0
 223.411132812 96.9697265625 240.79296875 114.036132812 262.96484375 179.975585938 c 0
 281.223632812 234.278320312 283.923828125 289.166992188 269.298828125 308.751953125 c 0
EndSplineSet
EndChar

StartChar: seven
Encoding: 55 55 23
Width: 384
VWidth: 0
Flags: HW
LayerCount: 2
Fore
SplineSet
299.130859375 603.5390625 m 0
 308.203125 612.802734375 336.678710938 610.521484375 347.5390625 599.66015625 c 0
 363.876953125 583.323242188 356.90234375 559.321289062 322.068359375 512 c 0
 303.034179688 486.141601562 270.567382812 434.423828125 249.018554688 395.63671875 c 2
 210.23046875 325.818359375 l 1
 237.76953125 297.890625 l 2
 259.189453125 276.169921875 264.737304688 264.963867188 262.73828125 247.466796875 c 0
 259.19140625 216.436523438 230.27734375 213.170898438 201.697265625 240.573242188 c 2
 180.751953125 260.654296875 l 1
 148.334960938 188.508789062 l 2
 81.7587890625 40.33984375 75.970703125 31.0302734375 50.423828125 31.0302734375 c 0
 31.0302734375 31.0302734375 26.763671875 34.45703125 24.82421875 51.587890625 c 0
 23.5546875 62.80078125 29.373046875 85.7216796875 37.6240234375 102.01171875 c 0
 46.052734375 118.65234375 62.19921875 155.927734375 74.0849609375 186.181640625 c 0
 85.970703125 216.436523438 103.491210938 255.600585938 113.6484375 274.618164062 c 2
 131.87890625 308.751953125 l 1
 104.4609375 339.005859375 l 2
 76.33984375 370.036132812 71.09765625 389.93359375 86.884765625 405.721679688 c 0
 101.34765625 420.18359375 117.915039062 416.87890625 140.412109375 395.04296875 c 2
 160.58203125 375.466796875 l 1
 192 432.484375 l 2
 209.098632812 463.515625 229.075195312 494.169921875 235.830078125 499.743164062 c 0
 257.896484375 517.947265625 250.569335938 530.729492188 222.642578125 522.75 c 0
 188.508789062 512.997070312 102.26171875 514.80078125 69.818359375 525.946289062 c 0
 48.873046875 533.140625 42.134765625 540.060546875 40.33984375 556.217773438 c 0
 37.2451171875 584.064453125 63.6123046875 597.7578125 101.624023438 588.046875 c 0
 129.551757812 580.912109375 289.237304688 593.438476562 299.130859375 603.5390625 c 0
EndSplineSet
EndChar

StartChar: eight
Encoding: 56 56 24
Width: 384
VWidth: 0
Flags: HW
LayerCount: 2
Fore
SplineSet
117.139648438 611.28125 m 0
 161.569335938 633.716796875 241.260742188 615.630859375 292.4609375 571.4921875 c 0
 338.23046875 532.036132812 355.21484375 462.372070312 328.715820312 422.788085938 c 0
 321.517578125 412.03515625 298.969726562 385.939453125 278.109375 364.217773438 c 2
 240.484375 325.041992188 l 1
 275.393554688 290.735351562 l 2
 349.866210938 217.546875 351.376953125 97.166015625 278.497070312 43.3603515625 c 0
 249.895507812 22.2451171875 183.854492188 14.0107421875 145.06640625 26.724609375 c 0
 113.6484375 37.0234375 65.869140625 86.109375 49.5087890625 124.896484375 c 0
 25.7119140625 181.313476562 44.2177734375 240.88671875 103.17578125 297.661132812 c 2
 138.860351562 332.024414062 l 1
 108.217773438 354.133789062 l 2
 91.634765625 366.098632812 66.5419921875 391.370117188 53.52734375 409.211914062 c 0
 32.548828125 437.97265625 29.919921875 446.8359375 32.9306640625 478.642578125 c 0
 37.263671875 524.412109375 80.7490234375 592.90625 117.139648438 611.28125 c 0
197.818359375 546.909179688 m 0
 195.32421875 551.064453125 183.079101562 554.666992188 171.442382812 554.666992188 c 0
 131.87890625 554.666992188 83.978515625 485.234375 101.333984375 453.041992188 c 0
 110.1171875 436.751953125 183.690429688 376.2421875 194.71484375 376.2421875 c 0
 206.102539062 376.2421875 238.674804688 407.272460938 260.673828125 439.079101562 c 0
 278.380859375 464.678710938 280.287109375 472.2578125 273.06640625 488.33984375 c 0
 268.373046875 498.79296875 250.569335938 514.501953125 233.502929688 523.248046875 c 0
 216.436523438 531.995117188 200.377929688 542.642578125 197.818359375 546.909179688 c 0
232.727539062 243.587890625 m 0
 215.69140625 265.309570312 196.973632812 283.151367188 191.224609375 283.151367188 c 0
 185.51171875 283.151367188 164.354492188 265.697265625 144.678710938 244.751953125 c 0
 114.071289062 212.169921875 108.606445312 201.650390625 108.606445312 175.321289062 c 0
 108.606445312 151.272460938 114.016601562 138.094726562 132.654296875 116.751953125 c 0
 154.434570312 91.810546875 160.58203125 89.2119140625 197.818359375 89.2119140625 c 0
 250.020507812 89.2119140625 263.7578125 104.727539062 263.7578125 163.684570312 c 0
 263.7578125 199.370117188 260.176757812 208.588867188 232.727539062 243.587890625 c 0
EndSplineSet
EndChar

StartChar: nine
Encoding: 57 57 25
Width: 384
VWidth: 0
Flags: HW
LayerCount: 2
Fore
SplineSet
116.36328125 622.216796875 m 0
 161.357421875 637.690429688 240.09375 634.743164062 269.963867188 616.46875 c 0
 334.334960938 577.0859375 357.517578125 439.079101562 318.787109375 325.818359375 c 0
 308.629882812 296.114257812 279.485351562 230.400390625 254.448242188 180.751953125 c 0
 219.241210938 110.93359375 199.727539062 81.9365234375 169.890625 55.0986328125 c 0
 114.036132812 4.857421875 54.302734375 -3.5712890625 54.302734375 38.7880859375 c 0
 54.302734375 53.28515625 61.28515625 62.681640625 79.126953125 72.197265625 c 0
 109.381835938 88.3330078125 170.666992188 142.3125 170.666992188 152.82421875 c 0
 170.666992188 157.046875 184.806640625 188.508789062 201.697265625 221.866210938 c 2
 232.727539062 283.151367188 l 1
 204.024414062 281.9140625 l 2
 166.984375 280.317382812 114.8125 303.529296875 72.1455078125 340.588867188 c 0
 32 375.458007812 12.083984375 430.545898438 20.2705078125 484.072265625 c 0
 27.7451171875 532.9453125 81.5029296875 610.229492188 116.36328125 622.216796875 c 0
235.0546875 560.484375 m 0
 221.665039062 570.52734375 218.763671875 570.63671875 164.4609375 563.146484375 c 0
 135.55078125 559.159179688 127.948242188 553.890625 107.442382812 523.63671875 c 0
 87.232421875 493.818359375 84.291015625 483.296875 87.2724609375 451.491210938 c 0
 91.3994140625 407.470703125 112.484375 380.74609375 159.805664062 359.557617188 c 0
 204.024414062 339.758789062 256.913085938 348.173828125 264.671875 376.2421875 c 0
 280.754882812 434.423828125 263.977539062 538.79296875 235.0546875 560.484375 c 0
EndSplineSet
EndChar

StartChar: colon
Encoding: 58 58 26
Width: 384
VWidth: 0
Flags: HW
LayerCount: 2
Fore
SplineSet
141.017578125 265.309570312 m 0
 163.245117188 292.112304688 211.782226562 267.63671875 211.782226562 229.624023438 c 0
 211.782226562 183.079101562 167.215820312 161.705078125 135.7578125 193.1640625 c 0
 118.83203125 210.088867188 117.400390625 215.272460938 124.508789062 233.890625 c 0
 128.952148438 245.52734375 136.456054688 259.80859375 141.017578125 265.309570312 c 0
140.309570312 425.890625 m 0
 158.467773438 449.1640625 186.393554688 452.266601562 203.142578125 432.873046875 c 0
 223.2421875 409.599609375 226.348632812 391.072265625 213.41796875 371.587890625 c 0
 196.943359375 346.763671875 153.092773438 346.323242188 136.15625 370.8125 c 0
 120.873046875 392.911132812 121.546875 401.842773438 140.309570312 425.890625 c 0
EndSplineSet
EndChar

StartChar: semicolon
Encoding: 59 59 27
Width: 384
VWidth: 0
Flags: HW
LayerCount: 2
Fore
SplineSet
157.149414062 249.793945312 m 0
 166.272460938 261.373046875 197.818359375 262.252929688 217.98828125 251.491210938 c 0
 260.130859375 229.005859375 247.466796875 99.7353515625 201.697265625 85.1962890625 c 0
 164.4609375 73.3681640625 134.004882812 108.217773438 158.189453125 134.981445312 c 0
 171.5078125 149.721679688 174.956054688 174.545898438 163.684570312 174.545898438 c 0
 160.208984375 174.545898438 153.625 183.079101562 148.720703125 193.939453125 c 0
 139.961914062 213.333007812 142.6953125 231.448242188 157.149414062 249.793945312 c 0
155.907226562 418.133789062 m 0
 175.606445312 442.958007812 204.696289062 444.348632812 220.80078125 421.236328125 c 0
 246.435546875 384.4453125 228.072265625 342.884765625 186.181640625 342.884765625 c 0
 141.963867188 342.884765625 126.565429688 381.158203125 155.907226562 418.133789062 c 0
EndSplineSet
EndChar

StartChar: less
Encoding: 60 60 28
Width: 384
VWidth: 0
Flags: HW
LayerCount: 2
Fore
SplineSet
206.3515625 467.553710938 m 0
 255.224609375 515.276367188 297.317382812 554.666992188 299.442382812 554.666992188 c 0
 301.484375 554.666992188 310.302734375 550.922851562 318.060546875 546.762695312 c 0
 349.592773438 529.854492188 336.678710938 505.956054688 249.018554688 418.999023438 c 0
 201.697265625 372.05859375 158.328125 331.4140625 151.66015625 327.7578125 c 0
 142.182617188 322.559570312 153.599609375 308.678710938 205.576171875 262.206054688 c 0
 242.036132812 229.606445312 271.515625 201.16796875 271.515625 198.59375 c 0
 271.515625 196.0078125 285.420898438 178.423828125 302.803710938 159.030273438 c 0
 341.741210938 115.587890625 343.109375 86.900390625 306.423828125 83.09375 c 0
 285.645507812 80.9375 277.241210938 87.66015625 227.991210938 145.842773438 c 0
 162.32421875 223.41796875 115.178710938 263.479492188 73.697265625 276.952148438 c 0
 46.5458984375 285.770507812 42.6669921875 289.939453125 42.6669921875 310.302734375 c 0
 42.6669921875 328.145507812 48.0966796875 336.329101562 65.939453125 345.375976562 c 0
 96.8369140625 361.041992188 100.848632812 364.533203125 206.3515625 467.553710938 c 0
EndSplineSet
EndChar

StartChar: equal
Encoding: 61 61 29
Width: 384
VWidth: 0
Flags: HW
LayerCount: 2
Fore
SplineSet
128 276.359375 m 0
 183.079101562 282.091796875 277.181640625 276.586914062 296.33984375 266.512695312 c 0
 310.302734375 259.169921875 315.190429688 224.8984375 303.321289062 217.553710938 c 0
 292.4609375 210.833007812 82.0146484375 209.776367188 71.3701171875 216.389648438 c 0
 58.9580078125 224.099609375 58.9580078125 257.231445312 71.3701171875 265.112304688 c 0
 76.916015625 268.633789062 102.400390625 273.6953125 128 276.359375 c 0
94.642578125 439.970703125 m 0
 134.506835938 442.9609375 240.484375 438.008789062 282.375976562 431.19921875 c 0
 318.060546875 425.397460938 334.196289062 406.330078125 321.00390625 385.551757812 c 0
 313.899414062 374.361328125 300.994140625 372.543945312 235.830078125 373.556640625 c 0
 53.52734375 376.38671875 63.287109375 375.407226562 54.466796875 391.7578125 c 0
 40.4619140625 417.716796875 56.6298828125 437.120117188 94.642578125 439.970703125 c 0
EndSplineSet
EndChar

StartChar: greater
Encoding: 62 62 30
Width: 384
VWidth: 0
Flags: HW
LayerCount: 2
Fore
SplineSet
44.2177734375 534.497070312 m 0
 51.7451171875 542.0234375 76.7998046875 539.927734375 95.41796875 530.213867188 c 0
 104.866210938 525.284179688 131.87890625 503.748046875 155.927734375 481.971679688 c 0
 202.458984375 439.8359375 224.969726562 423.310546875 300.994140625 375.475585938 c 0
 332.799804688 355.462890625 349.090820312 340.087890625 349.090820312 330.084960938 c 0
 349.090820312 321.274414062 319.612304688 286.450195312 278.497070312 246.690429688 c 0
 239.708984375 209.181640625 190.251953125 156.404296875 168.727539062 129.551757812 c 0
 136.391601562 89.2119140625 126.030273438 81.0849609375 109.381835938 83.005859375 c 0
 93.5341796875 84.8349609375 88.6611328125 89.98828125 86.6396484375 107.0546875 c 0
 83.5908203125 132.797851562 121.018554688 181.106445312 207.903320312 263.573242188 c 2
 265.309570312 318.060546875 l 1
 208.291015625 358.01171875 l 2
 177.260742188 379.754882812 142.080078125 406.272460938 131.103515625 416.194335938 c 0
 120.141601562 426.1015625 94.642578125 447.81640625 75.248046875 463.758789062 c 0
 41.115234375 491.817382812 29.0478515625 519.326171875 44.2177734375 534.497070312 c 0
EndSplineSet
EndChar

StartChar: question
Encoding: 63 63 31
Width: 384
VWidth: 0
Flags: HW
LayerCount: 2
Fore
SplineSet
132.409179688 97.7451171875 m 0
 147.586914062 126.254882812 196.08984375 113.260742188 216.385742188 75.248046875 c 0
 242.479492188 26.3759765625 177.379882812 -9.041015625 136.533203125 31.8056640625 c 0
 122.749023438 45.5908203125 120.844726562 76.0244140625 132.409179688 97.7451171875 c 0
150.497070312 606.479492188 m 0
 194.690429688 632.088867188 263.04296875 609.745117188 316.12109375 552.33984375 c 0
 376.173828125 487.389648438 366.93359375 421.65625 288.58203125 356.42578125 c 0
 264.533203125 336.404296875 239.731445312 313.950195312 234.208007812 307.200195312 c 0
 221.302734375 291.42578125 198.583984375 214.884765625 200.130859375 192.387695312 c 0
 202.317382812 160.58203125 187.701171875 135.7578125 166.788085938 135.7578125 c 0
 130.021484375 135.7578125 123.444335938 174.545898438 145.083007812 263.7578125 c 0
 157.620117188 315.443359375 161.357421875 321.147460938 222.642578125 382.116210938 c 0
 296.33984375 455.43359375 302.4921875 474.491210938 265.330078125 514.327148438 c 0
 220.130859375 562.778320312 176.41796875 556.994140625 118.764648438 494.93359375 c 0
 87.775390625 461.576171875 75.7421875 453.362304688 63.6123046875 457.286132812 c 0
 41.7841796875 464.348632812 35.9951171875 487.951171875 49.623046875 514.327148438 c 0
 60.7802734375 535.921875 116.36328125 586.69921875 150.497070312 606.479492188 c 0
EndSplineSet
EndChar

StartChar: at
Encoding: 64 64 32
Width: 384
VWidth: 0
Flags: HW
LayerCount: 2
Fore
SplineSet
133.430664062 466.512695312 m 0
 168.956054688 479.430664062 204.024414062 478.984375 252.12109375 465 c 0
 330.205078125 442.296875 359.834960938 402.618164062 359.528320312 321.1640625 c 0
 359.280273438 255.224609375 346.01953125 217.2734375 314.958007812 193.606445312 c 0
 281.599609375 168.19140625 245.9375 168.317382812 220.315429688 193.939453125 c 0
 209.454101562 204.799804688 194.05859375 213.538085938 186.958007812 212.873046875 c 0
 158.254882812 210.181640625 145.544921875 214.40625 127.224609375 232.727539062 c 0
 101.8359375 258.115234375 100.982421875 310.302734375 125.44921875 341.333007812 c 0
 139.791015625 359.522460938 145.842773438 361.768554688 171.442382812 358.400390625 c 0
 191.612304688 355.74609375 203.779296875 357.951171875 209.971679688 365.381835938 c 0
 221.435546875 379.138671875 236.606445312 378.754882812 251.345703125 364.3359375 c 0
 260.16015625 355.713867188 263.7578125 336.678710938 263.7578125 298.666992188 c 0
 263.7578125 242.8125 273.547851562 228.172851562 287.104492188 263.7578125 c 0
 291.407226562 275.052734375 294.788085938 300.994140625 294.788085938 322.71484375 c 0
 294.788085938 371.955078125 273.06640625 395.858398438 221.090820312 403.813476562 c 0
 169.890625 411.650390625 129.142578125 397.794921875 103.502929688 363.830078125 c 0
 86.9365234375 341.885742188 82.3369140625 325.818359375 79.515625 280.048828125 c 0
 77.267578125 243.587890625 79.4189453125 217.063476562 85.556640625 205.576171875 c 0
 97.181640625 183.81640625 148.169921875 160.775390625 201.697265625 153.09375 c 0
 247.466796875 146.524414062 265.474609375 129.41015625 250.955078125 106.278320312 c 0
 231.055664062 74.580078125 133.430664062 86.9619140625 72.1455078125 128.958007812 c 0
 19.380859375 165.115234375 12.462890625 180.751953125 12.849609375 262.981445312 c 0
 13.1513671875 327.370117188 15.6025390625 339.547851562 35.640625 376.2421875 c 0
 59.7880859375 420.4609375 94.2373046875 452.260742188 133.430664062 466.512695312 c 0
183.854492188 281.211914062 m 0
 186.026367188 286.642578125 186.026367188 295.17578125 183.854492188 300.606445312 c 0
 181.682617188 306.036132812 179.975585938 301.76953125 179.975585938 290.909179688 c 0
 179.975585938 280.048828125 181.682617188 275.782226562 183.854492188 281.211914062 c 0
EndSplineSet
EndChar

StartChar: A
Encoding: 65 65 33
Width: 384
VWidth: 0
Flags: HW
LayerCount: 2
Fore
SplineSet
180.36328125 614.788085938 m 0
 184.35546875 620.040039062 196.266601562 624.484375 206.3515625 624.484375 c 0
 229.5625 624.484375 240.484375 599.66015625 240.484375 546.909179688 c 0
 240.484375 526.110351562 244.322265625 490.278320312 248.958984375 467.782226562 c 0
 259.338867188 417.421875 327.99609375 164.4609375 348.55078125 100.848632812 c 0
 365.344726562 48.873046875 360.016601562 27.1513671875 330.47265625 27.1513671875 c 0
 304.177734375 27.1513671875 288.396484375 56.6298828125 266.516601562 146.618164062 c 2
 247.466796875 224.969726562 l 1
 189.672851562 224.969726562 l 2
 157.866210938 224.969726562 131.87890625 224.62109375 131.87890625 224.194335938 c 0
 131.87890625 212.557617188 65.302734375 35.1630859375 58.2197265625 27.927734375 c 0
 44.1494140625 13.552734375 16.546875 24.048828125 11.294921875 45.76953125 c 0
 8.5966796875 56.93359375 24.7568359375 115.587890625 54.470703125 202.47265625 c 0
 113.368164062 374.690429688 135.344726562 446.424804688 156.426757812 535.272460938 c 0
 165.630859375 574.060546875 176.26953125 609.400390625 180.36328125 614.788085938 c 0
209.842773438 347.5390625 m 0
 202.033203125 376.2421875 193.72265625 402.059570312 191.612304688 404.169921875 c 0
 189.481445312 406.30078125 181.7890625 383.224609375 174.545898438 352.969726562 c 0
 167.301757812 322.71484375 163.455078125 295.79296875 166.01171875 293.236328125 c 0
 170.666992188 288.58203125 217.211914062 287.985351562 221.866210938 292.520507812 c 0
 223.1328125 293.75390625 217.651367188 318.8359375 209.842773438 347.5390625 c 0
EndSplineSet
EndChar

StartChar: B
Encoding: 66 66 34
Width: 384
VWidth: 0
Flags: HW
LayerCount: 2
Fore
SplineSet
120.2421875 616.30859375 m 0
 253.672851562 644.711914062 333.576171875 587.047851562 333.576171875 462.3515625 c 0
 333.576171875 428.217773438 329.848632812 418.688476562 306.423828125 392.920898438 c 2
 279.272460938 363.0546875 l 1
 298.278320312 328.920898438 l 2
 308.732421875 310.147460938 322.734375 273.842773438 329.395507812 248.2421875 c 0
 362.69921875 120.2421875 318.04296875 36.3505859375 206.3515625 17.09375 c 0
 164.662109375 9.9052734375 148.557617188 10.771484375 105.890625 22.4970703125 c 0
 77.9638671875 30.171875 50.8857421875 41.3515625 45.76953125 47.3212890625 c 0
 38.984375 55.2373046875 37.51171875 105.502929688 40.33984375 232.727539062 c 0
 42.9248046875 349.090820312 40.9716796875 432.614257812 34.4794921875 483.296875 c 0
 20.865234375 589.576171875 25.0341796875 596.041992188 120.2421875 616.30859375 c 0
248.629882812 532.9453125 m 0
 237.599609375 546.8125 225.745117188 550.302734375 185.40625 551.563476562 c 0
 158.254882812 552.412109375 127.497070312 551.357421875 117.52734375 549.236328125 c 2
 99.296875 545.357421875 l 1
 104.727539062 451.103515625 l 2
 107.721679688 399.126953125 111.076171875 355.8046875 112.206054688 354.521484375 c 0
 117.999023438 347.938476562 232.125976562 409.599609375 251.479492188 429.76953125 c 0
 270.434570312 449.5234375 272.404296875 456.145507812 267.63671875 484.072265625 c 0
 264.58984375 501.915039062 256.24609375 523.37109375 248.629882812 532.9453125 c 0
247.33203125 284.703125 m 0
 240.666015625 301.942382812 233.890625 306.34375 214.497070312 306.036132812 c 0
 201.0390625 305.822265625 178.036132812 300.420898438 163.296875 294.01171875 c 0
 148.557617188 287.603515625 129.388671875 281.330078125 120.629882812 280.048828125 c 0
 105.536132812 277.83984375 104.806640625 273.06640625 106.278320312 186.181640625 c 0
 107.133789062 135.7578125 110.094726562 92.5517578125 112.873046875 89.98828125 c 0
 115.635742188 87.4375 143.515625 85.3330078125 174.545898438 85.3330078125 c 0
 240.484375 85.3330078125 259.034179688 96.7109375 271.928710938 145.06640625 c 0
 279.895507812 174.939453125 271.62890625 221.866210938 247.33203125 284.703125 c 0
EndSplineSet
EndChar

StartChar: C
Encoding: 67 67 35
Width: 384
VWidth: 0
Flags: HW
LayerCount: 2
Fore
SplineSet
136.533203125 604.305664062 m 0
 173.76953125 618.047851562 242.947265625 620.19140625 266.084960938 608.3203125 c 0
 315.733398438 582.845703125 340.747070312 533.91015625 316.508789062 509.672851562 c 0
 302.01171875 495.17578125 291.684570312 498.538085938 261.430664062 527.606445312 c 0
 229.083984375 558.684570312 205.576171875 561.518554688 158.254882812 540.044921875 c 0
 132.970703125 528.571289062 123.848632812 518.206054688 108.994140625 484.072265625 c 0
 93.2958984375 448 89.9013671875 422.788085938 84.5576171875 302.545898438 c 0
 80.455078125 210.23046875 80.9951171875 154.49609375 86.1533203125 138.084960938 c 0
 97.7607421875 101.15234375 134.981445312 81.4541015625 193.1640625 81.4541015625 c 2
 240.484375 81.4541015625 l 1
 257.66015625 117.915039062 l 2
 275.567382812 155.927734375 294.662109375 167.140625 314.181640625 151.106445312 c 0
 338.522460938 131.112304688 315.733398438 59.9287109375 274.618164062 27.5224609375 c 0
 246.143554688 5.0791015625 158.254882812 5.1796875 108.606445312 27.712890625 c 0
 23.0576171875 66.5380859375 12.6787109375 93.0908203125 14.8251953125 267.63671875 c 0
 16.6083984375 412.703125 25.447265625 466.418945312 58.09765625 530.618164062 c 0
 80.19140625 574.060546875 96.76171875 589.62890625 136.533203125 604.305664062 c 0
EndSplineSet
EndChar

StartChar: D
Encoding: 68 68 36
Width: 384
VWidth: 0
Flags: HW
LayerCount: 2
Fore
SplineSet
32.1943359375 595.393554688 m 0
 38.6064453125 607.20703125 47.3212890625 608.358398438 99.296875 604.264648438 c 0
 235.0546875 593.571289062 275.95703125 566.736328125 319.150390625 460.024414062 c 0
 344.439453125 397.543945312 345.177734375 392.533203125 344.048828125 290.909179688 c 0
 343.083007812 204.024414062 340.016601562 178.6484375 326.051757812 141.963867188 c 0
 306.265625 89.98828125 256.33203125 40.0791015625 211.782226562 27.75 c 0
 177.6484375 18.3037109375 65.142578125 16.712890625 59.673828125 25.599609375 c 0
 57.5673828125 29.0224609375 53.5927734375 126.448242188 50.8125 242.8125 c 0
 48.03125 359.17578125 41.072265625 482.524414062 35.296875 517.818359375 c 0
 28.6962890625 558.157226562 27.548828125 586.836914062 32.1943359375 595.393554688 c 0
187.733398438 522.984375 m 0
 172.278320312 527.094726562 145.06640625 533.124023438 128.775390625 536.048828125 c 2
 98.521484375 541.478515625 l 1
 103.486328125 511.224609375 l 2
 113.149414062 452.348632812 123.15234375 216.436523438 118.649414062 153.599609375 c 2
 114.036132812 89.2119140625 l 1
 155.151367188 89.2119140625 l 2
 205.576171875 89.2119140625 241.533203125 109.459960938 259.8515625 148.169921875 c 0
 267.172851562 163.641601562 276.526367188 212.9453125 280.82421875 258.71484375 c 0
 288.327148438 338.618164062 287.90234375 343.373046875 267.89453125 403.393554688 c 0
 239.450195312 488.727539062 222.7265625 513.677734375 187.733398438 522.984375 c 0
EndSplineSet
EndChar

StartChar: E
Encoding: 69 69 37
Width: 384
VWidth: 0
Flags: HW
LayerCount: 2
Fore
SplineSet
39.5634765625 591.91015625 m 0
 64.3876953125 601.061523438 282.267578125 602.659179688 304.873046875 593.854492188 c 0
 320.387695312 587.811523438 325.818359375 580.668945312 325.818359375 566.302734375 c 0
 325.818359375 537.705078125 300.994140625 531.393554688 188.508789062 531.393554688 c 2
 91.5390625 531.393554688 l 1
 96.1943359375 510.060546875 l 2
 98.7763671875 498.223632812 103.092773438 461.963867188 105.890625 428.606445312 c 2
 110.93359375 368.484375 l 1
 163.684570312 368.484375 l 2
 231.951171875 368.484375 256 359.592773438 256 334.3515625 c 0
 256 307.587890625 235.0546875 298.666992188 172.217773438 298.666992188 c 2
 118.690429688 298.666992188 l 1
 113.260742188 242.423828125 l 2
 110.264648438 211.393554688 105.744140625 167.924804688 103.17578125 145.454101562 c 2
 98.521484375 104.727539062 l 1
 196.266601562 104.727539062 l 2
 308.751953125 104.727539062 333.576171875 98.556640625 333.576171875 70.59375 c 0
 333.576171875 59.7333984375 327.602539062 47.95703125 320 43.830078125 c 0
 312.501953125 39.759765625 246.690429688 36.30078125 172.994140625 36.1025390625 c 0
 18.6181640625 35.689453125 17.19140625 36.271484375 29.5869140625 94.642578125 c 0
 51.00390625 195.491210938 47.353515625 440.861328125 23.078125 532.169921875 c 0
 14.416015625 564.751953125 19.9111328125 584.665039062 39.5634765625 591.91015625 c 0
EndSplineSet
EndChar

StartChar: F
Encoding: 70 70 38
Width: 384
VWidth: 0
Flags: HW
LayerCount: 2
Fore
SplineSet
24.048828125 567.466796875 m 0
 30.1220703125 583.7890625 33.357421875 584.120117188 175.321289062 582.981445312 c 0
 304.096679688 581.94921875 321.345703125 580.293945312 328.920898438 568.2421875 c 0
 335.083984375 558.4375 335.004882812 550.788085938 328.635742188 540.703125 c 0
 318.518554688 524.684570312 322.71484375 525.380859375 199.370117188 519.235351562 c 2
 100.848632812 514.327148438 l 1
 100.848632812 462.739257812 l 2
 100.848632812 434.036132812 103.084960938 398.418945312 105.890625 382.448242188 c 2
 110.93359375 353.745117188 l 1
 155.151367188 358.251953125 l 2
 207.903320312 363.627929688 232.727539062 353.000976562 232.727539062 325.041992188 c 0
 232.727539062 302.545898438 209.454101562 290.909179688 164.4609375 290.909179688 c 0
 148.9453125 290.909179688 131.836914062 288.236328125 127.224609375 285.090820312 c 0
 122.34765625 281.766601562 116.356445312 239.708984375 113.243164062 186.958007812 c 0
 106.787109375 77.576171875 95.3427734375 42.6669921875 65.939453125 42.6669921875 c 0
 40.150390625 42.6669921875 28.736328125 69.818359375 39.19921875 106.278320312 c 0
 43.271484375 120.469726562 46.5458984375 163.684570312 46.5458984375 203.248046875 c 0
 46.5458984375 295.563476562 32.109375 506.444335938 24.08203125 531.393554688 c 0
 20.587890625 542.254882812 20.5732421875 558.126953125 24.048828125 567.466796875 c 0
EndSplineSet
EndChar

StartChar: G
Encoding: 71 71 39
Width: 384
VWidth: 0
Flags: HW
LayerCount: 2
Fore
SplineSet
139.63671875 619.0859375 m 0
 163.119140625 628.129882812 226.521484375 624.55078125 251.345703125 612.780273438 c 0
 318.8359375 580.778320312 351.03515625 507.4375 300.217773438 501.458984375 c 0
 282.095703125 499.327148438 273.271484375 504.2421875 254.8359375 526.739257812 c 0
 233.913085938 552.272460938 228.4609375 554.666992188 191.224609375 554.666992188 c 0
 155.5390625 554.666992188 147.375 551.44921875 125.28515625 528.678710938 c 0
 101.76953125 504.440429688 99.517578125 497.260742188 91.82421875 422.01171875 c 0
 76.279296875 269.963867188 75.8974609375 255.536132812 85.6806640625 190.060546875 c 0
 93.6796875 136.533203125 99.2607421875 121.018554688 116.938476562 103.17578125 c 0
 155.745117188 64.0068359375 205.928710938 76.0244140625 252.991210938 135.7578125 c 0
 276.624023438 165.75390625 279.272460938 174.157226562 279.272460938 219.151367188 c 0
 279.272460938 263.370117188 277.694335938 268.6015625 265.697265625 264.145507812 c 0
 258.34375 261.4140625 235.0546875 255.811523438 214.884765625 251.921875 c 0
 167.563476562 242.795898438 145.2578125 252.534179688 148.686523438 280.82421875 c 0
 151.580078125 304.692382812 183.854492188 318.3515625 256 326.2421875 c 0
 299.442382812 330.994140625 302.97265625 330.065429688 325.430664062 307.975585938 c 0
 345.305664062 288.426757812 349.090820312 278.497070312 349.090820312 245.915039062 c 0
 349.090820312 169.115234375 336.303710938 129.357421875 297.94140625 86.884765625 c 0
 250.995117188 34.9091796875 230.409179688 21.8525390625 185.40625 15.509765625 c 0
 142.739257812 9.49609375 108.198242188 21.6884765625 68.2666015625 56.8583984375 c 0
 44.76953125 77.552734375 38.3701171875 90.3759765625 27.927734375 137.697265625 c 0
 21.064453125 168.795898438 14.73046875 223.41796875 13.759765625 259.87890625 c 0
 11.2802734375 352.969726562 28.3251953125 495.294921875 46.18359375 530.618164062 c 0
 59.91015625 557.76953125 114.423828125 609.375976562 139.63671875 619.0859375 c 0
EndSplineSet
EndChar

StartChar: H
Encoding: 72 72 40
Width: 384
VWidth: 0
Flags: HW
LayerCount: 2
Fore
SplineSet
25.6162109375 588.799804688 m 0
 32.404296875 606.412109375 67.3994140625 604.315429688 77.4091796875 585.697265625 c 0
 81.767578125 577.58984375 87.6025390625 529.06640625 90.3759765625 477.866210938 c 0
 93.1494140625 426.666992188 97.5126953125 381.633789062 100.072265625 377.793945312 c 0
 102.732421875 373.8046875 138.47265625 372.474609375 183.466796875 374.690429688 c 2
 262.206054688 378.569335938 l 1
 264.920898438 479.030273438 l 2
 267.311523438 567.466796875 269.493164062 580.841796875 283.151367188 590.774414062 c 0
 300.217773438 603.186523438 302.998046875 603.508789062 316.508789062 594.642578125 c 0
 324.333007812 589.5078125 327.115234375 529.06640625 328.920898438 325.041992188 c 0
 330.198242188 180.751953125 328.09765625 55.7587890625 324.266601562 48.0966796875 c 0
 314.45703125 28.4775390625 280.139648438 31.0302734375 272.130859375 51.9755859375 c 0
 268.373046875 61.8037109375 262.870117188 122.958007812 259.87890625 188.12109375 c 2
 254.448242188 306.423828125 l 1
 191.224609375 306.423828125 l 2
 156.315429688 306.423828125 123.657226562 303.64453125 118.302734375 300.217773438 c 0
 111.81640625 296.06640625 106.166015625 256.387695312 101.236328125 180.36328125 c 0
 97.162109375 117.52734375 90.1484375 59.7783203125 85.548828125 51.2001953125 c 0
 73.7939453125 29.2724609375 40.0859375 30.2548828125 32.2900390625 52.751953125 c 0
 29.0478515625 62.1064453125 29.1796875 117.139648438 32.58203125 174.545898438 c 0
 36.6064453125 242.459960938 35.53125 324.266601562 29.5224609375 407.272460938 c 0
 19.078125 551.563476562 18.6650390625 570.763671875 25.6162109375 588.799804688 c 0
EndSplineSet
EndChar

StartChar: I
Encoding: 73 73 41
Width: 384
VWidth: 0
Flags: HW
LayerCount: 2
Fore
SplineSet
43.830078125 591.515625 m 0
 54.5458984375 599.334960938 72.9208984375 600.612304688 116.36328125 596.557617188 c 0
 148.627929688 593.545898438 212.557617188 590.78125 259.87890625 590.3515625 c 2
 345.211914062 589.576171875 l 1
 345.211914062 566.302734375 l 2
 345.211914062 545.939453125 341.333007812 541.721679688 314.181640625 532.557617188 c 0
 297.115234375 526.797851562 269.885742188 521.91015625 253.672851562 521.697265625 c 2
 224.194335938 521.309570312 l 1
 226.133789062 300.994140625 l 1
 228.072265625 80.6787109375 l 1
 276.169921875 85.89453125 l 2
 332.024414062 91.9501953125 356.848632812 82.23046875 356.848632812 54.302734375 c 0
 356.848632812 44.2177734375 352.9375 33.2763671875 348.315429688 30.4296875 c 0
 316.1015625 10.5888671875 110.93359375 16.677734375 56.6298828125 39.0849609375 c 0
 37.236328125 47.087890625 31.0302734375 54.349609375 31.0302734375 69.0419921875 c 0
 31.0302734375 96.7314453125 54.302734375 107.560546875 91.5390625 97.19921875 c 0
 107.0546875 92.8818359375 130.043945312 89.2119140625 141.576171875 89.2119140625 c 2
 162.909179688 89.2119140625 l 1
 162.133789062 257.939453125 l 2
 161.705078125 351.030273438 159.0390625 447.532226562 156.185546875 473.211914062 c 0
 150.497070312 524.412109375 150.497070312 524.412109375 73.697265625 536.782226562 c 0
 40.33984375 542.155273438 34.529296875 545.69140625 32.1943359375 562.036132812 c 0
 30.53125 573.672851562 35.0439453125 585.103515625 43.830078125 591.515625 c 0
EndSplineSet
EndChar

StartChar: J
Encoding: 74 74 42
Width: 384
VWidth: 0
Flags: HW
LayerCount: 2
Fore
SplineSet
81.4541015625 605.633789062 m 0
 134.981445312 616.778320312 323.681640625 612.236328125 339.782226562 599.416015625 c 0
 352.194335938 589.532226562 352.194335938 568.629882812 339.782226562 556.217773438 c 0
 334.686523438 551.123046875 313.793945312 546.909179688 293.624023438 546.909179688 c 2
 256.775390625 546.909179688 l 1
 261.041992188 448 l 2
 263.3984375 393.387695312 262.235351562 292.4609375 258.444335938 222.642578125 c 0
 251.1171875 87.66015625 247.064453125 74.966796875 200.145507812 40.0419921875 c 0
 174.545898438 20.986328125 120.2421875 21.005859375 94.642578125 40.0810546875 c 0
 64.3876953125 62.623046875 40.908203125 108.943359375 51.255859375 125.672851562 c 0
 66.34765625 150.071289062 88.8603515625 146.618164062 111.94140625 116.36328125 c 0
 123.185546875 101.624023438 139.038085938 89.2119140625 146.618164062 89.2119140625 c 0
 174.706054688 89.2119140625 184.51171875 113.260742188 189.317382812 193.939453125 c 0
 191.859375 236.606445312 196.208007812 299.09375 198.981445312 332.799804688 c 0
 201.951171875 368.88671875 200.037109375 425.502929688 194.327148438 470.497070312 c 2
 184.629882812 546.909179688 l 1
 158.642578125 546.909179688 l 2
 144.375 546.909179688 114.8125 543.060546875 93.0908203125 538.375976562 c 0
 59.7333984375 531.180664062 50.4853515625 531.844726562 34.1337890625 542.608398438 c 0
 13.9638671875 555.884765625 9.13671875 580.505859375 24.82421875 590.092773438 c 0
 30.0126953125 593.263671875 55.0791015625 600.142578125 81.4541015625 605.633789062 c 0
EndSplineSet
EndChar

StartChar: K
Encoding: 75 75 43
Width: 384
VWidth: 0
Flags: HW
LayerCount: 2
Fore
SplineSet
32.1943359375 591.515625 m 0
 36.677734375 603.383789062 44.994140625 608.969726562 58.181640625 608.969726562 c 0
 83.73046875 608.969726562 89.4248046875 593.454101562 100.89453125 492.606445312 c 0
 106.010742188 447.612304688 110.840820312 408.026367188 111.684570312 404.169921875 c 0
 113.577148438 395.516601562 251.078125 547.684570312 269.405273438 578.71484375 c 0
 280.40234375 597.333007812 287.805664062 601.530273438 306.423828125 599.69921875 c 0
 360.8984375 594.340820312 336.6640625 547.684570312 204.0546875 402.618164062 c 2
 121.793945312 312.629882812 l 1
 140.412109375 273.06640625 l 2
 152.705078125 246.943359375 186.04296875 205.963867188 238.545898438 152.436523438 c 0
 282.678710938 107.442382812 318.060546875 64.810546875 318.060546875 56.6298828125 c 0
 318.060546875 35.65234375 287.805664062 26.296875 262.206054688 39.357421875 c 0
 251.145507812 45.0009765625 211.907226562 82.23046875 175.321289062 121.793945312 c 2
 108.606445312 193.939453125 l 1
 108.606445312 119.466796875 l 2
 108.606445312 36.4609375 100.400390625 15.943359375 69.0419921875 20.5419921875 c 2
 50.423828125 23.2724609375 l 1
 44.994140625 236.606445312 l 2
 42.0126953125 353.745117188 36.4150390625 477.922851562 32.58203125 512 c 0
 28.7421875 546.133789062 28.5673828125 581.915039062 32.1943359375 591.515625 c 0
EndSplineSet
EndChar

StartChar: L
Encoding: 76 76 44
Width: 384
VWidth: 0
Flags: HW
LayerCount: 2
Fore
SplineSet
29.5400390625 588.799804688 m 0
 40.5419921875 613.624023438 65.7236328125 614.76953125 80.716796875 591.126953125 c 0
 86.640625 581.78515625 93.9970703125 540.703125 96.9697265625 500.36328125 c 0
 99.9423828125 460.024414062 103.489257812 416.1328125 104.807617188 403.393554688 c 0
 120.77734375 249.018554688 123.51953125 190.048828125 116.494140625 152.048828125 c 0
 112.19140625 128.775390625 108.606445312 106.913085938 108.606445312 103.951171875 c 0
 108.606445312 92.5166015625 211.782226562 79.4912109375 263.7578125 84.36328125 c 0
 328.920898438 90.47265625 356.848632812 81.6875 356.848632812 55.0791015625 c 0
 356.848632812 20.5068359375 335.903320312 16.3876953125 190.8359375 22.4326171875 c 0
 110.93359375 25.76171875 54.6767578125 31.443359375 48.0966796875 36.8486328125 c 0
 40.1455078125 43.3798828125 38.4384765625 57.40625 41.724609375 89.2119140625 c 0
 57.544921875 242.35546875 58.2783203125 217.98828125 29.763671875 486.400390625 c 0
 23.087890625 549.236328125 23.0341796875 574.118164062 29.5400390625 588.799804688 c 0
EndSplineSet
EndChar

StartChar: M
Encoding: 77 77 45
Width: 384
VWidth: 0
Flags: HW
LayerCount: 2
Fore
SplineSet
47.1884765625 598.884765625 m 0
 55.439453125 620.606445312 85.083984375 623.124023438 101.985351562 603.5390625 c 0
 108.596679688 595.87890625 129.270507812 558.93359375 147.782226562 521.697265625 c 0
 166.293945312 484.4609375 183.453125 453.818359375 185.793945312 453.818359375 c 0
 188.154296875 453.818359375 200.231445312 470.109375 212.823242188 490.278320312 c 0
 242.366210938 537.599609375 293.358398438 603.31640625 306.423828125 610.909179688 c 0
 320.123046875 618.869140625 341.73046875 609.745117188 347.759765625 593.454101562 c 0
 355.51171875 572.508789062 342.587890625 64.0126953125 333.80078125 44.2177734375 c 0
 323.125 20.169921875 289.118164062 20.169921875 279.903320312 44.2177734375 c 0
 276.13671875 54.048828125 274.634765625 154.375976562 276.557617188 267.63671875 c 2
 280.048828125 473.211914062 l 1
 244.517578125 413.478515625 l 2
 187.298828125 317.28515625 163.934570312 316.353515625 127.696289062 408.82421875 c 0
 107.935546875 459.248046875 104.950195312 463.244140625 100.4609375 445.28515625 c 0
 97.6962890625 434.229492188 92.85546875 341.333007812 89.74609375 239.708984375 c 0
 83.7890625 44.994140625 78.859375 19.3935546875 47.3212890625 19.3935546875 c 0
 21.8212890625 19.3935546875 17.3935546875 36.4609375 19.146484375 128 c 0
 21.9677734375 275.393554688 40.1259765625 580.290039062 47.1884765625 598.884765625 c 0
EndSplineSet
EndChar

StartChar: N
Encoding: 78 78 46
Width: 384
VWidth: 0
Flags: HW
LayerCount: 2
Fore
SplineSet
54.9130859375 595.005859375 m 0
 66.6748046875 616.813476562 101.5078125 611.296875 113.693359375 585.697265625 c 0
 174.625 457.697265625 193.794921875 412.879882812 201.625 380.12109375 c 0
 209.784179688 345.98828125 263.916992188 226.701171875 278.018554688 211.782226562 c 0
 280.850585938 208.786132812 284.368164062 287.030273438 285.866210938 386.327148438 c 0
 287.364257812 485.624023438 291.734375 572.21484375 295.615234375 579.491210938 c 0
 306.45703125 599.819335938 340.169921875 597.333007812 348.20703125 575.612304688 c 0
 351.684570312 566.211914062 353.126953125 445.28515625 351.41796875 306.423828125 c 0
 349.708984375 167.563476562 348.466796875 48.37890625 348.653320312 41.115234375 c 0
 349.150390625 21.7216796875 321.939453125 8.716796875 302.545898438 19.080078125 c 0
 285.397460938 28.2431640625 248.2421875 88.4365234375 248.2421875 107.0546875 c 0
 248.2421875 113.834960938 228.532226562 157.478515625 204.799804688 203.248046875 c 0
 181.067382812 249.018554688 151.854492188 316.947265625 140.412109375 352.969726562 c 2
 119.466796875 418.909179688 l 1
 113.736328125 318.060546875 l 2
 108.2265625 221.090820312 97.349609375 105.16796875 88.8427734375 52.751953125 c 0
 83.806640625 21.7216796875 61.2734375 7.4775390625 37.236328125 20.12890625 c 0
 22.6904296875 27.7841796875 21.478515625 33.357421875 25.9228515625 72.1455078125 c 0
 40.9052734375 202.897460938 46.5458984375 301.76953125 46.5458984375 433.6484375 c 0
 46.5458984375 520.533203125 49.927734375 585.762695312 54.9130859375 595.005859375 c 0
EndSplineSet
EndChar

StartChar: O
Encoding: 79 79 47
Width: 384
VWidth: 0
Flags: HW
LayerCount: 2
Fore
SplineSet
161.357421875 617.413085938 m 0
 176.873046875 620.397460938 190.416992188 623.290039062 190.8359375 623.708984375 c 0
 191.256835938 624.129882812 212.557617188 617.330078125 237.381835938 608.850585938 c 0
 330.61328125 577.00390625 349.397460938 536.048828125 355.095703125 352.194335938 c 0
 361.178710938 155.927734375 337.827148438 82.4775390625 256 40.50390625 c 0
 219.733398438 21.9013671875 206.3515625 19.0302734375 166.788085938 21.3662109375 c 0
 45.416015625 28.5322265625 10.0478515625 119.466796875 29.9677734375 373.139648438 c 0
 39.3486328125 492.606445312 46.478515625 522.356445312 74.9619140625 560.873046875 c 0
 98.59375 592.829101562 125.672851562 610.55078125 161.357421875 617.413085938 c 0
255.224609375 528.384765625 m 0
 245.424804688 537.14453125 223.41796875 543.397460938 195.491210938 545.357421875 c 0
 158.254882812 547.970703125 149.041992188 546.010742188 137.147460938 532.9453125 c 0
 112.426757812 505.793945312 102.01171875 449.939453125 96.35546875 314.181640625 c 0
 90.634765625 176.873046875 95.9677734375 134.708007812 123.142578125 102.400390625 c 0
 139.455078125 83.005859375 200.920898438 84.5205078125 235.830078125 105.176757812 c 0
 277.315429688 129.724609375 290.225585938 179.975585938 290.5234375 318.060546875 c 0
 290.782226562 437.52734375 279.1171875 507.025390625 255.224609375 528.384765625 c 0
EndSplineSet
EndChar

StartChar: P
Encoding: 80 80 48
Width: 384
VWidth: 0
Flags: HW
LayerCount: 2
Fore
SplineSet
52.751953125 595.978515625 m 0
 118.690429688 605.994140625 175.619140625 600.98828125 217.211914062 581.514648438 c 0
 298.24609375 543.576171875 325.134765625 504.2421875 327.836914062 419.684570312 c 0
 329.59765625 364.606445312 328.501953125 360.26171875 307.286132812 338.23046875 c 0
 281.50390625 311.456054688 200.145507812 269.576171875 161.357421875 263.111328125 c 0
 99.9072265625 252.869140625 104.543945312 259.87890625 106.884765625 180.751953125 c 0
 110.09765625 72.1455078125 85.041015625 8.7568359375 48.0966796875 32.03125 c 0
 36.2353515625 39.50390625 35.1435546875 54.302734375 37.236328125 179.200195312 c 0
 38.5107421875 255.224609375 34.4736328125 374.227539062 28.3154296875 442.181640625 c 0
 21.63671875 515.87890625 19.9033203125 571.66015625 24.048828125 579.491210938 c 0
 27.7890625 586.555664062 41.115234375 594.2109375 52.751953125 595.978515625 c 0
205.576171875 513.85546875 m 0
 183.486328125 526.340820312 161.357421875 531.393554688 128.775390625 531.393554688 c 2
 83.005859375 531.393554688 l 1
 88.048828125 494.545898438 l 2
 90.8408203125 474.143554688 95.341796875 427.0546875 98.1337890625 389.041992188 c 2
 103.17578125 320.387695312 l 1
 131.103515625 325.041992188 l 2
 146.411132812 327.59375 182.690429688 340.9140625 211.393554688 354.521484375 c 0
 263.370117188 379.161132812 263.7578125 379.581054688 263.7578125 411.151367188 c 0
 263.7578125 455.370117188 242.423828125 493.02734375 205.576171875 513.85546875 c 0
EndSplineSet
EndChar

StartChar: Q
Encoding: 81 81 49
Width: 384
VWidth: 0
Flags: HW
LayerCount: 2
Fore
SplineSet
162.909179688 625.9921875 m 0
 180.751953125 631.872070312 255.139648438 612.366210938 271.515625 597.513671875 c 0
 279.59765625 590.182617188 300.45703125 562.423828125 317.702148438 536.048828125 c 0
 361.428710938 469.172851562 374.612304688 404.9453125 364.515625 307.975585938 c 0
 356.76171875 233.502929688 323.396484375 109.173828125 308.751953125 100.181640625 c 0
 304.500976562 97.5712890625 313.793945312 86.6513671875 329.309570312 76.0244140625 c 0
 351.805664062 60.615234375 357.130859375 52.326171875 355.224609375 35.6845703125 c 0
 352.197265625 9.2685546875 318.8359375 4.1875 289.357421875 25.65234375 c 0
 270.6640625 39.2646484375 266.860351562 39.529296875 237.381835938 29.2705078125 c 0
 149.721679688 -1.2373046875 71.74609375 21.0703125 38.705078125 86.109375 c 0
 20.447265625 122.047851562 19.3935546875 131.103515625 19.3935546875 252.12109375 c 0
 19.3935546875 451.491210938 41.646484375 531.232421875 114.036132812 591.2734375 c 0
 134.206054688 608.001953125 156.606445312 623.915039062 162.909179688 625.9921875 c 0
258.056640625 508.12109375 m 0
 242.125 531.393554688 223.559570312 551.215820312 217.211914062 551.729492188 c 0
 125.28515625 559.168945312 92.923828125 491.0546875 87.7685546875 279.272460938 c 0
 84.935546875 162.909179688 86.205078125 144.19921875 98.5625 120.2421875 c 0
 114.672851562 89.0078125 141.963867188 77.3330078125 181.52734375 84.751953125 c 2
 209.454101562 89.98828125 l 1
 186.22265625 121.793945312 l 2
 159.0234375 159.030273438 156.556640625 185.890625 179.200195312 198.241210938 c 0
 193.551757812 206.069335938 199.138671875 203.248046875 226.133789062 174.545898438 c 0
 242.9140625 156.703125 257.965820312 143.3671875 259.40625 145.06640625 c 0
 269.327148438 156.767578125 294.348632812 267.63671875 298.44921875 318.060546875 c 0
 305.262695312 401.842773438 293.760742188 455.965820312 258.056640625 508.12109375 c 0
EndSplineSet
EndChar

StartChar: R
Encoding: 82 82 50
Width: 384
VWidth: 0
Flags: HW
LayerCount: 2
Fore
SplineSet
71.3701171875 614.880859375 m 0
 138.084960938 627.223632812 207.630859375 625.981445312 237.381835938 611.91796875 c 0
 308.751953125 578.178710938 360.861328125 460.142578125 330.466796875 401.06640625 c 0
 318.678710938 378.153320312 214.109375 292.334960938 183.854492188 280.743164062 c 0
 170.96484375 275.805664062 171.323242188 273.454101562 188.508789062 250.181640625 c 0
 198.918945312 236.084960938 216.01953125 209.06640625 227.296875 188.896484375 c 0
 238.4140625 169.014648438 268.53125 130.71484375 294.400390625 103.563476562 c 0
 320.268554688 76.412109375 341.333007812 48.732421875 341.333007812 41.890625 c 0
 341.333007812 24.7900390625 325.818359375 11.63671875 305.6484375 11.63671875 c 0
 283.595703125 11.63671875 193.4609375 110.157226562 158.02734375 172.994140625 c 0
 144.028320312 197.818359375 125.525390625 224.420898438 116.751953125 232.33984375 c 2
 100.848632812 246.690429688 l 1
 100.848632812 146.23046875 l 2
 100.848632812 67.87890625 98.1943359375 42.013671875 88.7880859375 28.703125 c 0
 73.986328125 7.7578125 49.7138671875 6.2353515625 39.30859375 25.599609375 c 0
 35.1044921875 33.423828125 31.8056640625 122.958007812 31.8056640625 229.236328125 c 0
 31.8056640625 333.1875 28.2998046875 455.546875 24.048828125 499.975585938 c 0
 19.2978515625 549.624023438 19.1474609375 586.153320312 23.66015625 594.23046875 c 0
 28.1962890625 602.345703125 46.5458984375 610.288085938 71.3701171875 614.880859375 c 0
234.278320312 529.842773438 m 0
 212.4609375 553.115234375 207.903320312 554.610351562 161.357421875 553.763671875 c 0
 90.763671875 552.48046875 83.5263671875 549.651367188 88.2607421875 525.1875 c 0
 90.486328125 513.692382812 94.58984375 466.618164062 97.357421875 420.848632812 c 2
 102.400390625 337.454101562 l 1
 128 337.454101562 l 2
 152.40234375 337.454101562 212.557617188 372.052734375 254.448242188 410.180664062 c 0
 283.927734375 437.01171875 275.733398438 485.624023438 234.278320312 529.842773438 c 0
EndSplineSet
EndChar

StartChar: S
Encoding: 83 83 51
Width: 384
VWidth: 0
Flags: HW
LayerCount: 2
Fore
SplineSet
115.587890625 606.45703125 m 0
 134.206054688 616.290039062 162.415039062 624.484375 177.6484375 624.484375 c 0
 210.9609375 624.484375 273.06640625 590.522460938 318.060546875 547.701171875 c 0
 342.884765625 524.075195312 349.336914062 512.662109375 347.453125 495.708984375 c 0
 343.39453125 459.18359375 316.508789062 462.68359375 267.63671875 506.102539062 c 0
 196.266601562 569.506835938 152.280273438 574.313476562 114.279296875 522.860351562 c 0
 97.9296875 500.72265625 88.3037109375 442.958007812 95.923828125 412.703125 c 0
 100.4296875 394.813476562 163.684570312 341.811523438 207.903320312 318.875976562 c 0
 244.36328125 299.96484375 292.799804688 257.551757812 319.576171875 221.090820312 c 0
 342.881835938 189.35546875 345.130859375 181.52734375 344.313476562 134.981445312 c 0
 343.279296875 76.0244140625 329.172851562 43.7734375 293.236328125 18.2099609375 c 0
 271.208007812 2.541015625 258.327148438 0 200.920898438 0 c 0
 139.63671875 0 131.491210938 1.8798828125 100.848632812 23.09375 c 0
 62.8359375 49.41015625 23.2724609375 99.3515625 23.2724609375 121.018554688 c 0
 23.2724609375 128.698242188 30.2548828125 138.822265625 38.7880859375 143.515625 c 0
 52.0458984375 150.807617188 60.5087890625 146.177734375 96.9697265625 111.688476562 c 0
 145.06640625 66.19140625 192.12890625 51.0595703125 238.157226562 66.294921875 c 0
 269.827148438 76.7763671875 279.272460938 93.0908203125 279.272460938 137.309570312 c 0
 279.272460938 179.041992188 249.793945312 218.623046875 195.491210938 249.803710938 c 0
 175.603515625 261.223632812 131.87890625 291.19140625 99.296875 315.733398438 c 0
 42.6669921875 358.389648438 39.080078125 362.903320312 30.2548828125 402.618164062 c 0
 25.0830078125 425.890625 23.2646484375 459.6796875 26.1630859375 478.642578125 c 0
 33.515625 526.739257812 73.875 584.42578125 115.587890625 606.45703125 c 0
EndSplineSet
EndChar

StartChar: T
Encoding: 84 84 52
Width: 384
VWidth: 0
Flags: HW
LayerCount: 2
Fore
SplineSet
39.5634765625 611.749023438 m 0
 53.6845703125 621.64453125 79.126953125 623.173828125 186.958007812 620.606445312 c 0
 259.87890625 618.870117188 324.290039062 613.744140625 333.1875 608.969726562 c 0
 342.729492188 603.849609375 349.090820312 592.678710938 349.090820312 581.041992188 c 0
 349.090820312 554.551757812 319.612304688 544.6796875 259.87890625 551.165039062 c 2
 213.333007812 556.217773438 l 1
 215.500976562 344.436523438 l 2
 217.985351562 101.624023438 212.290039062 21.4912109375 191.612304688 8.369140625 c 0
 181.815429688 2.15234375 174.93359375 2.1943359375 164.848632812 8.533203125 c 0
 152.370117188 16.376953125 151.241210938 38.01171875 150.884765625 276.169921875 c 0
 150.670898438 418.909179688 147.883789062 539.627929688 144.678710938 544.969726562 c 0
 141.12890625 550.88671875 121.018554688 554.666992188 93.0908203125 554.666992188 c 0
 29.478515625 554.666992188 1.1767578125 584.84765625 39.5634765625 611.749023438 c 0
EndSplineSet
EndChar

StartChar: U
Encoding: 85 85 53
Width: 384
VWidth: 0
Flags: HW
LayerCount: 2
Fore
SplineSet
18.6181640625 598.109375 m 0
 22.1494140625 612.233398438 28.703125 616.727539062 45.76953125 616.727539062 c 0
 79.322265625 616.727539062 82.1396484375 598.884765625 92.923828125 318.060546875 c 0
 96.85546875 215.66015625 102.182617188 126.642578125 104.76171875 120.2421875 c 0
 114.778320312 95.38671875 150.497070312 78.048828125 197.818359375 75.0732421875 c 2
 244.36328125 72.1455078125 l 1
 258.556640625 101.624023438 l 2
 274.666992188 135.083984375 287.256835938 273.842773438 291.357421875 463.126953125 c 0
 292.819335938 530.618164062 296.1484375 589.182617188 298.766601562 593.454101562 c 0
 307.140625 607.118164062 340.490234375 601.98828125 349.198242188 585.697265625 c 0
 365.7265625 554.771484375 358.081054688 262.981445312 337.327148438 132.654296875 c 0
 329.296875 82.23046875 301.6796875 34.189453125 271.515625 18.17578125 c 0
 198.942382812 -20.353515625 72.896484375 21.7216796875 42.439453125 94.642578125 c 0
 30.994140625 122.043945312 10.0849609375 563.975585938 18.6181640625 598.109375 c 0
EndSplineSet
EndChar

StartChar: V
Encoding: 86 86 54
Width: 384
VWidth: 0
Flags: HW
LayerCount: 2
Fore
SplineSet
20.7001953125 592.678710938 m 0
 37.55859375 617.317382812 60.0654296875 613.624023438 72.69921875 584.145507812 c 0
 84.2587890625 557.173828125 111.573242188 467.005859375 139.205078125 364.606445312 c 0
 171.233398438 245.915039062 184.893554688 201.529296875 185.522460938 214.109375 c 0
 185.885742188 221.372070312 198.206054688 263.370117188 212.9453125 307.587890625 c 0
 227.665039062 351.748046875 249.018554688 429.76953125 260.395507812 480.969726562 c 0
 284.703125 590.3515625 294.967773438 610.673828125 324.266601562 607.41796875 c 0
 350.942382812 604.454101562 354.314453125 584.145507812 338.563476562 521.309570312 c 0
 293.643554688 342.109375 283.671875 305.178710938 267.971679688 259.87890625 c 0
 253.194335938 217.244140625 226.123046875 111.708984375 212.849609375 44.994140625 c 0
 210.998046875 35.6845703125 202.049804688 23.9560546875 193.1640625 19.19140625 c 0
 171.442382812 7.5439453125 151.010742188 26.3759765625 144.127929688 64.3876953125 c 0
 134.857421875 115.587890625 52.9580078125 441.73046875 46.140625 454.59375 c 0
 42.5283203125 461.412109375 32.9208984375 491.830078125 24.82421875 522.084960938 c 0
 11.953125 570.181640625 11.4306640625 579.129882812 20.7001953125 592.678710938 c 0
EndSplineSet
EndChar

StartChar: W
Encoding: 87 87 55
Width: 384
VWidth: 0
Flags: HW
LayerCount: 2
Fore
SplineSet
304.096679688 607.41796875 m 0
 317.395507812 620.716796875 337.07421875 619.0546875 350.013671875 603.5390625 c 0
 374.06640625 574.698242188 364.708007812 117.915039062 338.79296875 55.8544921875 c 0
 324.5390625 21.7216796875 307.151367188 8.95703125 283.151367188 15.0087890625 c 0
 258.610351562 21.1982421875 207.624023438 72.9208984375 190.123046875 109.381835938 c 0
 174.372070312 142.1953125 170.903320312 139.63671875 147.005859375 77.576171875 c 0
 124.004882812 17.8427734375 117.986328125 10.455078125 94.642578125 13.30859375 c 0
 66.3271484375 16.76953125 47.0283203125 48.873046875 39.220703125 105.502929688 c 0
 17.1884765625 265.309570312 11.017578125 536.504882812 28.064453125 595.782226562 c 0
 34.302734375 617.475585938 76.1494140625 614.400390625 80.84375 591.903320312 c 0
 84.80078125 572.936523438 94.453125 259.103515625 93.1298828125 192.387695312 c 0
 92.6845703125 169.890625 95.65234375 151.272460938 99.6845703125 151.272460938 c 0
 103.750976562 151.272460938 116.43359375 181.52734375 127.9765625 218.763671875 c 0
 150.823242188 292.4609375 158.611328125 306.423828125 176.873046875 306.423828125 c 0
 202.5 306.423828125 217.211914062 282.375976562 217.211914062 240.484375 c 0
 217.211914062 211.201171875 223.763671875 188.12109375 242.423828125 151.66015625 c 0
 256.3203125 124.508789062 271.465820312 101.086914062 276.169921875 99.474609375 c 0
 289.762695312 94.8134765625 294.788085938 174.545898438 294.788085938 394.860351562 c 0
 294.788085938 542.254882812 297.345703125 600.666992188 304.096679688 607.41796875 c 0
EndSplineSet
EndChar

StartChar: X
Encoding: 88 88 56
Width: 384
VWidth: 0
Flags: HW
LayerCount: 2
Fore
SplineSet
20.9453125 612.072265625 m 0
 33.4052734375 624.532226562 66.216796875 612.072265625 80.1884765625 589.576171875 c 0
 88.1806640625 576.70703125 113.543945312 536.82421875 136.920898438 500.36328125 c 0
 160.298828125 463.903320312 181.107421875 426.447265625 183.466796875 416.58203125 c 0
 187.547851562 399.515625 188.374023438 399.3125 202.47265625 411.927734375 c 0
 210.23046875 418.868164062 217.211914062 429.340820312 217.211914062 434.036132812 c 0
 217.211914062 438.90234375 228.671875 458.47265625 242.423828125 477.090820312 c 0
 256.176757812 495.708984375 278.21484375 532.557617188 290.909179688 558.157226562 c 0
 311.681640625 600.048828125 316.682617188 605.090820312 337.454101562 605.090820312 c 0
 356.072265625 605.090820312 361.244140625 601.3671875 363.313476562 586.47265625 c 0
 367.389648438 557.122070312 358.956054688 535.272460938 323.485351562 483.296875 c 0
 305.118164062 456.381835938 276.889648438 410.375976562 260.654296875 380.896484375 c 2
 231.17578125 327.370117188 l 1
 252.508789062 280.048828125 l 2
 264.399414062 253.672851562 278.477539062 222.42578125 284.315429688 209.454101562 c 0
 290.081054688 196.641601562 306.635742188 155.151367188 321.149414062 117.139648438 c 0
 351.658203125 37.236328125 350.002929688 15.515625 313.40625 15.515625 c 0
 291.668945312 15.515625 289.36328125 19.3935546875 245.139648438 130.327148438 c 0
 220.08984375 193.1640625 196.735351562 242.330078125 193.551757812 238.93359375 c 0
 190.319335938 235.485351562 172.045898438 201.697265625 152.436523438 162.909179688 c 0
 132.827148438 124.12109375 105.76171875 75.8515625 91.5390625 54.302734375 c 0
 70.5478515625 22.4970703125 61.75 15.515625 42.6669921875 15.515625 c 0
 5.1201171875 15.515625 8.22265625 43.4423828125 54.302734375 120.2421875 c 0
 76.041015625 156.47265625 107.84765625 217.98828125 124.896484375 256.775390625 c 2
 155.927734375 327.370117188 l 1
 127.612304688 384.775390625 l 2
 111.923828125 416.58203125 91.7236328125 452.560546875 82.314453125 465.454101562 c 0
 33.6298828125 532.169921875 6.3115234375 597.438476562 20.9453125 612.072265625 c 0
EndSplineSet
EndChar

StartChar: Y
Encoding: 89 89 57
Width: 384
VWidth: 0
Flags: HW
LayerCount: 2
Fore
SplineSet
20.9453125 612.072265625 m 0
 32.48828125 623.616210938 63.5498046875 615.951171875 80.6787109375 597.333007812 c 0
 90.5908203125 586.55859375 115.0703125 546.909179688 135.7578125 508.12109375 c 0
 156.444335938 469.333007812 177.4765625 434.510742188 183.079101562 429.76953125 c 0
 190.953125 423.106445312 199.0703125 433.6484375 220.114257812 477.866210938 c 0
 274.015625 591.126953125 333.440429688 645.280273438 356.318359375 601.98828125 c 0
 365.854492188 583.942382812 364.98828125 581.818359375 328.166992188 532.9453125 c 0
 299.322265625 494.661132812 264.931640625 424.33984375 240.150390625 352.969726562 c 0
 224.3203125 307.376953125 222.791015625 290.133789062 224.194335938 172.994140625 c 0
 225.197265625 89.2119140625 222.694335938 37.6865234375 217.109375 27.1513671875 c 0
 208.884765625 11.63671875 175.302734375 5.330078125 167.537109375 17.8427734375 c 0
 165.412109375 21.2666015625 161.598632812 94.642578125 159.030273438 181.52734375 c 0
 155.728515625 293.236328125 151.206054688 345.995117188 143.469726562 363.0546875 c 0
 131.908203125 388.55078125 91.5966796875 456.920898438 43.302734375 532.9453125 c 0
 16.69140625 574.8359375 9.42578125 600.552734375 20.9453125 612.072265625 c 0
EndSplineSet
EndChar

StartChar: Z
Encoding: 90 90 58
Width: 384
VWidth: 0
Flags: HW
LayerCount: 2
Fore
SplineSet
182.302734375 615.09375 m 0
 224.194335938 625.45703125 331.434570312 626.166015625 349.866210938 616.203125 c 0
 372.975585938 603.711914062 367.475585938 578.71484375 333.596679688 542.254882812 c 0
 317.185546875 524.59375 293.729492188 490.666992188 282.375976562 468.169921875 c 0
 270.951171875 445.53125 246.091796875 403.393554688 227.684570312 375.466796875 c 0
 209.278320312 347.5390625 188.297851562 310.514648438 181.52734375 294.01171875 c 0
 174.631835938 277.204101562 154.365234375 232.727539062 135.927734375 193.939453125 c 0
 81.822265625 80.11328125 74.47265625 90.6943359375 207.126953125 91.435546875 c 0
 335.903320312 92.1552734375 364.606445312 85.5283203125 364.606445312 55.0791015625 c 0
 364.606445312 44.2177734375 361.022460938 33.4658203125 356.4609375 30.642578125 c 0
 351.9609375 27.857421875 275.393554688 25.1123046875 185.40625 24.51171875 c 0
 0 23.2724609375 0 23.2724609375 18.9033203125 83.005859375 c 0
 32.4052734375 125.672851562 75.529296875 228.508789062 84.6162109375 239.708984375 c 0
 88.4501953125 244.435546875 100.7109375 270.739257812 112.096679688 298.666992188 c 0
 123.482421875 326.59375 144.595703125 367.26171875 159.41796875 389.818359375 c 0
 174.233398438 412.36328125 196.744140625 449.939453125 209.842773438 473.98828125 c 0
 222.940429688 498.036132812 239.217773438 526.26171875 246.302734375 537.211914062 c 2
 259.103515625 556.994140625 l 1
 197.041992188 550.076171875 l 2
 79.126953125 536.932617188 15.515625 546.697265625 15.515625 577.939453125 c 0
 15.515625 605.359375 44.994140625 617.134765625 100.848632812 612.028320312 c 0
 128.775390625 609.474609375 165.1171875 610.842773438 182.302734375 615.09375 c 0
EndSplineSet
EndChar

StartChar: bracketleft
Encoding: 91 91 59
Width: 384
VWidth: 0
Flags: HW
LayerCount: 2
Fore
SplineSet
135.7578125 617.115234375 m 2
 183.079101562 619.481445312 223.85546875 622.03515625 227.296875 622.848632812 c 0
 240.690429688 626.014648438 263.7578125 607.41796875 263.7578125 593.454101562 c 0
 263.7578125 570.399414062 235.0546875 556.811523438 175.321289062 551.588867188 c 0
 145.842773438 549.01171875 120.051757812 545.166015625 117.915039062 543.030273438 c 0
 115.7734375 540.888671875 118.206054688 477.478515625 123.345703125 401.454101562 c 0
 128.485351562 325.430664062 131.495117188 224.842773438 130.06640625 176.873046875 c 0
 127.108398438 77.576171875 124.291015625 81.4541015625 199.370117188 81.4541015625 c 0
 259.103515625 81.4541015625 279.272460938 72.642578125 279.272460938 46.5458984375 c 0
 279.272460938 32.8974609375 273.06640625 24.7744140625 258.327148438 19.1298828125 c 0
 231.17578125 8.7314453125 85.4677734375 17.0107421875 72.1455078125 29.708984375 c 0
 60.978515625 40.3525390625 55.939453125 162.909179688 65.01171875 203.248046875 c 0
 68.0849609375 216.9140625 65.0146484375 297.115234375 58.181640625 381.672851562 c 0
 51.3486328125 466.23046875 46.8154296875 552.708007812 48.0966796875 574.060546875 c 2
 50.423828125 612.848632812 l 1
 135.7578125 617.115234375 l 2
EndSplineSet
EndChar

StartChar: backslash
Encoding: 92 92 60
Width: 384
VWidth: 0
Flags: HW
LayerCount: 2
Fore
SplineSet
24.82421875 591.903320312 m 0
 29.90234375 596.98046875 41.890625 601.211914062 51.2001953125 601.211914062 c 0
 69.474609375 601.211914062 65.89453125 607.41796875 198.889648438 345.211914062 c 0
 232.334960938 279.272460938 269.513671875 210.956054688 281.211914062 193.939453125 c 0
 292.9453125 176.873046875 302.545898438 159.069335938 302.545898438 154.375976562 c 0
 302.545898438 149.66015625 311.444335938 132.654296875 322.4375 116.36328125 c 0
 347.041015625 79.9033203125 345.431640625 47.3798828125 318.8359375 43.6142578125 c 0
 296.80078125 40.494140625 268.754882812 65.1640625 255.532226562 99.296875 c 0
 250.319335938 112.752929688 233.659179688 143.126953125 219.151367188 165.624023438 c 0
 204.44921875 188.423828125 173.16015625 247.854492188 149.721679688 297.502929688 c 0
 126.282226562 347.151367188 86.4150390625 424.935546875 61.255859375 470.109375 c 0
 14.591796875 553.890625 8.1953125 575.274414062 24.82421875 591.903320312 c 0
EndSplineSet
EndChar

StartChar: bracketright
Encoding: 93 93 61
Width: 384
VWidth: 0
Flags: HW
LayerCount: 2
Fore
SplineSet
89.98828125 606.396484375 m 0
 107.143554688 618.91015625 257.551757812 620.489257812 280.048828125 608.391601562 c 0
 295.563476562 600.048828125 321.44140625 550.904296875 315.69140625 540.703125 c 0
 314.00390625 537.708984375 315.296875 443.733398438 318.573242188 331.248046875 c 0
 324.763671875 118.690429688 320.874023438 50.013671875 301.52734375 30.2548828125 c 0
 293.76953125 22.33203125 266.860351562 17.2587890625 217.211914062 14.3603515625 c 0
 97.7451171875 7.3837890625 77.576171875 11.47265625 77.576171875 42.6669921875 c 0
 77.576171875 66.318359375 94.642578125 72.7353515625 174.545898438 79.126953125 c 2
 252.12109375 85.3330078125 l 1
 252.508789062 205.576171875 l 2
 252.721679688 271.515625 251.3203125 375.7421875 249.40625 436.36328125 c 2
 245.915039062 546.909179688 l 1
 183.079101562 547.684570312 l 2
 148.169921875 548.116210938 111.623046875 550.803710938 100.848632812 553.732421875 c 0
 76.7998046875 560.270507812 70.255859375 592.002929688 89.98828125 606.396484375 c 0
EndSplineSet
EndChar

StartChar: asciicircum
Encoding: 94 94 62
Width: 384
VWidth: 0
Flags: HW
LayerCount: 2
Fore
SplineSet
131.4765625 567.079101562 m 0
 168.76953125 626.036132812 190.321289062 632.364257812 216.025390625 591.903320312 c 0
 244.1171875 547.684570312 282.46484375 496.314453125 305.205078125 472.436523438 c 0
 331.802734375 444.508789062 330.860351562 412.5234375 303.321289062 408.46484375 c 0
 289.401367188 406.413085938 274.23046875 416.095703125 243.200195312 446.8359375 c 0
 220.703125 469.123046875 201.697265625 491.859375 201.697265625 496.484375 c 0
 201.697265625 501.139648438 197.994140625 508.720703125 193.551757812 513.1640625 c 0
 187.884765625 518.830078125 169.697265625 505.018554688 133.790039062 467.782226562 c 0
 79.1826171875 411.151367188 54.271484375 401.372070312 38.9375 430.545898438 c 0
 29.1279296875 449.206054688 32.58203125 455.745117188 70.59375 490.487304688 c 0
 86.71484375 505.221679688 114.302734375 539.927734375 131.4765625 567.079101562 c 0
EndSplineSet
EndChar

StartChar: underscore
Encoding: 95 95 63
Width: 384
VWidth: 0
Flags: HW
LayerCount: 2
Fore
SplineSet
32.9697265625 81.4541015625 m 0
 42.599609375 85.306640625 110.93359375 87.7412109375 185.40625 86.884765625 c 0
 304.873046875 85.51171875 321.369140625 83.7724609375 328.920898438 71.7578125 c 0
 335.260742188 61.6728515625 335.260742188 54.6904296875 328.920898438 44.6064453125 c 0
 321.592773438 32.947265625 301.76953125 30.177734375 188.508789062 24.990234375 c 0
 41.115234375 18.2392578125 15.515625 22.5771484375 15.515625 54.302734375 c 0
 15.515625 67.4912109375 21.556640625 76.8896484375 32.9697265625 81.4541015625 c 0
EndSplineSet
EndChar

StartChar: grave
Encoding: 96 96 64
Width: 384
VWidth: 0
Flags: HW
LayerCount: 2
Fore
SplineSet
83.96484375 581.818359375 m 0
 98.9970703125 615.265625 124.875976562 607.41796875 163.271484375 557.76953125 c 0
 181.268554688 534.497070312 202.614257812 511.697265625 210.23046875 507.610351562 c 0
 229.326171875 497.364257812 228.848632812 464.346679688 209.454101562 453.95703125 c 0
 189.09375 443.048828125 154.770507812 460.799804688 131.723632812 494.157226562 c 0
 122.076171875 508.12109375 105.220703125 529.454101562 94.642578125 541.090820312 c 0
 77.716796875 559.708984375 76.357421875 564.892578125 83.96484375 581.818359375 c 0
EndSplineSet
EndChar

StartChar: a
Encoding: 97 97 65
Width: 384
VWidth: 0
Flags: HW
LayerCount: 2
Fore
SplineSet
147.393554688 371.25390625 m 0
 172.217773438 381.118164062 229.624023438 367.967773438 262.206054688 344.953125 c 0
 290.909179688 324.678710938 294.788085938 323.694335938 294.788085938 336.678710938 c 0
 294.788085938 364.606445312 304.142578125 376.2421875 326.59375 376.2421875 c 0
 340.557617188 376.2421875 349.700195312 371.393554688 352.194335938 362.666992188 c 0
 354.328125 355.196289062 353.630859375 276.169921875 350.642578125 186.958007812 c 0
 345.861328125 44.2177734375 343.541992188 23.787109375 331.248046875 16.1494140625 c 0
 311.865234375 4.1083984375 291.401367188 20.169921875 288.567382812 49.6484375 c 2
 286.254882812 73.697265625 l 1
 261.430664062 55.7822265625 l 2
 226.286132812 30.4208984375 187.733398438 19.3935546875 134.206054688 19.3935546875 c 0
 89.98828125 19.3935546875 86.0859375 20.984375 56.16015625 51.2001953125 c 0
 20.1396484375 87.5703125 7.7578125 125.672851562 7.7578125 200.145507812 c 0
 7.7578125 245.139648438 10.251953125 253.06640625 34.3681640625 284.703125 c 0
 57.3974609375 314.913085938 113.260742188 357.69140625 147.393554688 371.25390625 c 0
238.93359375 281.262695312 m 0
 217.5625 301.384765625 165.236328125 310.37890625 143.515625 297.6640625 c 0
 134.921875 292.633789062 116.751953125 278.025390625 102.788085938 264.920898438 c 0
 79.609375 243.168945312 77.576171875 237.381835938 77.576171875 193.1640625 c 0
 77.576171875 114.8125 96.9423828125 82.1142578125 143.515625 81.8359375 c 0
 175.321289062 81.64453125 227 106.666992188 246.873046875 131.87890625 c 0
 280.504882812 174.545898438 276.723632812 245.680664062 238.93359375 281.262695312 c 0
EndSplineSet
EndChar

StartChar: b
Encoding: 98 98 66
Width: 384
VWidth: 0
Flags: HW
LayerCount: 2
Fore
SplineSet
30.5751953125 604.315429688 m 0
 44.072265625 620.623046875 67.390625 619.830078125 76.19921875 602.763671875 c 0
 79.9208984375 595.553710938 85.2919921875 538.763671875 88.048828125 477.478515625 c 0
 90.8056640625 416.194335938 94.3212890625 364.327148438 95.8056640625 363.0546875 c 0
 97.267578125 361.801757812 112.484375 366.606445312 128.775390625 373.465820312 c 0
 169.890625 390.77734375 229.78125 390.581054688 266.084960938 373.014648438 c 0
 325.711914062 344.162109375 363.40625 257.551757812 354.487304688 169.890625 c 0
 348.883789062 114.8125 309.194335938 38.5087890625 277.721679688 22.3046875 c 0
 224.194335938 -5.25390625 150.102539062 0.626953125 99.296875 36.466796875 c 0
 88.4765625 44.099609375 83.3935546875 43.263671875 70.9814453125 31.8056640625 c 0
 62.9140625 24.3583984375 47.708984375 19.109375 38.400390625 20.5576171875 c 2
 20.9453125 23.2724609375 l 1
 20.9453125 307.975585938 l 2
 20.9453125 528.291015625 23.123046875 595.310546875 30.5751953125 604.315429688 c 0
243.587890625 305.564453125 m 0
 217.98828125 325.629882812 176.096679688 325.874023438 138.860351562 306.176757812 c 0
 97.6865234375 284.396484375 93.4013671875 275.393554688 88.384765625 200.145507812 c 2
 83.7822265625 131.103515625 l 1
 114.423828125 106.666992188 l 2
 131.491210938 93.056640625 154.002929688 78.8017578125 165.236328125 74.4912109375 c 0
 187.733398438 65.8583984375 230.21875 71.2265625 247.466796875 84.880859375 c 0
 268.461914062 101.501953125 286.447265625 154.375976562 286.674804688 200.145507812 c 0
 286.92578125 250.569335938 274.28125 281.5078125 243.587890625 305.564453125 c 0
EndSplineSet
EndChar

StartChar: c
Encoding: 99 99 67
Width: 384
VWidth: 0
Flags: HW
LayerCount: 2
Fore
SplineSet
141.963867188 361.115234375 m 0
 179.975585938 378.319335938 272.27734375 381.2109375 301.76953125 366.12109375 c 0
 332.024414062 350.642578125 354.323242188 316.083007812 344.293945312 300.217773438 c 0
 331.90625 280.623046875 304.873046875 280.182617188 280.82421875 299.18359375 c 0
 262.92578125 313.326171875 253.672851562 314.963867188 217.211914062 310.44140625 c 0
 172.217773438 304.860351562 150.078125 294.271484375 114.8125 261.466796875 c 0
 95.39453125 243.403320312 93.0908203125 235.830078125 93.0908203125 190.060546875 c 0
 93.0908203125 132.654296875 102.193359375 114.640625 144.291015625 88.734375 c 0
 182.302734375 65.3427734375 239.553710938 70.3291015625 269.963867188 99.681640625 c 0
 293.236328125 122.14453125 309.653320312 125.546875 324.266601562 110.93359375 c 0
 339.564453125 95.6357421875 334.3515625 69.384765625 311.854492188 48.431640625 c 0
 278.849609375 17.69140625 259.103515625 10.6201171875 203.248046875 9.5390625 c 0
 159.030273438 8.68359375 145.483398438 11.876953125 112.484375 30.9365234375 c 0
 67.4912109375 56.9248046875 58.5166015625 66.3388671875 38.447265625 108.606445312 c 0
 22.0419921875 143.157226562 19.275390625 201.697265625 31.884765625 247.466796875 c 0
 41.9306640625 283.927734375 96.9697265625 340.751953125 141.963867188 361.115234375 c 0
EndSplineSet
EndChar

StartChar: d
Encoding: 100 100 68
Width: 384
VWidth: 0
Flags: HW
LayerCount: 2
Fore
SplineSet
303.321289062 609.745117188 m 0
 321.330078125 627.75390625 325.818359375 628.1953125 345.211914062 613.860351562 c 0
 355.323242188 606.38671875 357.911132812 597.333007812 354.592773438 581.041992188 c 0
 337.368164062 496.484375 334.231445312 467.227539062 337.209960938 418.909179688 c 0
 339.0546875 388.982421875 341.602539062 286.254882812 342.884765625 190.060546875 c 2
 345.211914062 15.515625 l 1
 323.87890625 13.1875 l 2
 307.587890625 11.4111328125 300.528320312 15.26171875 294.01171875 29.478515625 c 2
 285.478515625 48.0966796875 l 1
 253.672851562 32.1943359375 l 2
 211.01953125 10.8671875 125.672851562 10.7314453125 81.4541015625 31.9189453125 c 0
 32.1865234375 55.52734375 21.3212890625 84.5576171875 26.041015625 179.975585938 c 0
 30.185546875 263.7578125 38.4501953125 288.307617188 74.876953125 325.041992188 c 0
 108.943359375 359.397460938 142.739257812 370.669921875 193.1640625 364.495117188 c 0
 217.211914062 361.55078125 245.263671875 354.673828125 256 349.090820312 c 2
 275.393554688 339.005859375 l 1
 275.393554688 436.751953125 l 2
 275.393554688 549.236328125 281.666015625 588.090820312 303.321289062 609.745117188 c 0
210.23046875 295.361328125 m 0
 194.71484375 298.059570312 177.130859375 301.579101562 170.666992188 303.280273438 c 0
 153.073242188 307.91015625 109.090820312 277.721679688 100.654296875 255.224609375 c 0
 96.484375 244.10546875 92.220703125 207.903320312 91.1513671875 174.545898438 c 0
 89.53515625 124.12109375 91.6748046875 111.321289062 103.987304688 97.7451171875 c 0
 131.868164062 67.0048828125 236.641601562 82.23046875 269.482421875 121.793945312 c 0
 275.029296875 128.477539062 277.428710938 155.927734375 275.71875 193.1640625 c 0
 272.512695312 262.981445312 256.97265625 287.232421875 210.23046875 295.361328125 c 0
EndSplineSet
EndChar

StartChar: e
Encoding: 101 101 69
Width: 384
VWidth: 0
Flags: HW
LayerCount: 2
Fore
SplineSet
128 388.57421875 m 0
 152.215820312 398.885742188 209.454101562 395.345703125 236.606445312 381.857421875 c 0
 268.412109375 366.057617188 311.06640625 328.040039062 322.981445312 304.873046875 c 0
 339.737304688 272.291015625 333.572265625 218.87890625 310.176757812 193.939453125 c 0
 263.84765625 144.553710938 131.87890625 149.721679688 131.87890625 200.920898438 c 0
 131.87890625 224.725585938 161.357421875 239.53125 188.508789062 229.36328125 c 0
 231.951171875 213.095703125 281.728515625 242.19921875 264.583007812 273.842773438 c 0
 237.681640625 323.491210938 168.432617188 345.02734375 131.103515625 315.35546875 c 0
 103.599609375 293.494140625 90.4736328125 241.260742188 95.326171875 172.994140625 c 0
 98.85546875 123.345703125 101.709960938 115.178710938 121.018554688 99.4912109375 c 0
 149.080078125 76.6904296875 183.079101562 76.1591796875 232.727539062 97.7451171875 c 0
 280.82421875 118.657226562 305.612304688 115.875 308.744140625 89.2119140625 c 0
 315.66796875 30.2548828125 163.684570312 -4.498046875 89.2119140625 39.0146484375 c 0
 63.0673828125 54.2900390625 51.796875 67.4912109375 41.0556640625 95.41796875 c 0
 24.4326171875 138.63671875 22.9404296875 231.17578125 38.001953125 284.703125 c 0
 49.134765625 324.266601562 91.3212890625 372.956054688 128 388.57421875 c 0
EndSplineSet
EndChar

StartChar: f
Encoding: 102 102 70
Width: 384
VWidth: 0
Flags: HW
LayerCount: 2
Fore
SplineSet
267.63671875 587.602539062 m 0
 320.387695312 601.021484375 360.090820312 586.147460938 355.55078125 554.666992188 c 0
 352.857421875 535.994140625 339.005859375 529.140625 285.478515625 519.993164062 c 0
 251.852539062 514.247070312 215.208984375 480.194335938 193.401367188 434.423828125 c 0
 168.494140625 382.150390625 170.666992188 378.821289062 227.296875 382.494140625 c 0
 285.478515625 386.268554688 310.302734375 376.046875 310.302734375 348.315429688 c 0
 310.302734375 323.80078125 286.254882812 314.181640625 224.969726562 314.181640625 c 2
 179.975585938 314.181640625 l 1
 177.150390625 179.975585938 l 2
 174.194335938 39.5634765625 169.482421875 19.3935546875 139.63671875 19.3935546875 c 0
 110.8203125 19.3935546875 107.200195312 37.236328125 108.313476562 173.76953125 c 2
 109.381835938 304.873046875 l 1
 73.697265625 304.2578125 l 2
 33.357421875 303.561523438 20.6953125 312.297851562 24.453125 338.23046875 c 0
 27.0244140625 355.97265625 30.2548828125 357.694335938 93.0908203125 374.83203125 c 0
 108.606445312 379.063476562 113.337890625 386.327148438 116.751953125 411.151367188 c 0
 119.098632812 428.217773438 128.390625 456.145507812 137.400390625 473.211914062 c 0
 161.974609375 519.7578125 227.629882812 577.42578125 267.63671875 587.602539062 c 0
EndSplineSet
EndChar

StartChar: g
Encoding: 103 103 71
Width: 384
VWidth: 0
Flags: HW
LayerCount: 2
Fore
SplineSet
299.977539062 378.569335938 m 0
 306.419921875 389.559570312 340.676757812 384 347.778320312 370.8125 c 0
 351.97265625 363.021484375 356.497070312 226.521484375 358.01171875 62.060546875 c 0
 360.641601562 -223.41796875 360.21875 -233.830078125 344.615234375 -267.63671875 c 0
 321.342773438 -318.060546875 273.688476562 -358.422851562 229.624023438 -365.033203125 c 0
 184.629882812 -371.782226562 115.490234375 -347.662109375 71.3701171875 -309.82421875 c 0
 17.8427734375 -263.919921875 8.3603515625 -166.788085938 57.40625 -166.788085938 c 0
 78.7021484375 -166.788085938 93.0908203125 -186.181640625 93.0908203125 -214.884765625 c 0
 93.0908203125 -242.630859375 113.260742188 -265.645507812 152.82421875 -283.043945312 c 0
 199.370117188 -303.512695312 232.736328125 -303.23046875 255.224609375 -282.177734375 c 0
 288.606445312 -250.926757812 294.788085938 -221.866210938 294.788085938 -96.1943359375 c 2
 294.788085938 21.7216796875 l 1
 269.963867188 16.5185546875 l 2
 197.041992188 1.2353515625 151.100585938 1.7666015625 118.690429688 18.265625 c 0
 72.1455078125 41.9619140625 32.5205078125 91.3173828125 26.2314453125 133.430664062 c 0
 19.62890625 177.6484375 28.384765625 263.461914062 42.220703125 290.133789062 c 0
 60.8466796875 326.040039062 110.157226562 362.798828125 152.048828125 372.005859375 c 0
 186.958007812 379.677734375 238.822265625 365.453125 263.7578125 341.368164062 c 2
 285.478515625 320.387695312 l 1
 290.909179688 346.375976562 l 2
 293.827148438 360.33984375 298.022460938 375.235351562 299.977539062 378.569335938 c 0
225.745117188 288.825195312 m 0
 187.733398438 314.529296875 154.526367188 312.030273438 121.793945312 281.001953125 c 0
 99.375 259.75 94.607421875 249.018554688 90.01171875 209.454101562 c 0
 82.171875 141.963867188 105.958007812 91.3876953125 154.375976562 72.603515625 c 0
 176.096679688 64.17578125 253.155273438 77.958984375 269.963867188 93.27734375 c 0
 275.950195312 98.7333984375 282.565429688 125.28515625 284.703125 152.436523438 c 0
 288.001953125 194.327148438 285.796875 206.919921875 269.963867188 236.606445312 c 0
 259.620117188 256 239.967773438 279.208984375 225.745117188 288.825195312 c 0
EndSplineSet
EndChar

StartChar: h
Encoding: 104 104 72
Width: 384
VWidth: 0
Flags: HW
LayerCount: 2
Fore
SplineSet
19.466796875 605.866210938 m 0
 33.7216796875 627.587890625 48.2109375 629.801757812 65.1640625 612.848632812 c 0
 75.302734375 602.708984375 77.576171875 580.266601562 77.576171875 490.278320312 c 0
 77.576171875 429.76953125 80.373046875 375.750976562 83.7822265625 370.423828125 c 0
 88.5556640625 362.96484375 96.9697265625 364.278320312 120.2421875 376.114257812 c 0
 178.423828125 405.703125 257.71875 387.66796875 297.03125 335.903320312 c 0
 325.137695312 298.892578125 349.2890625 189.28515625 347.796875 105.502929688 c 0
 346.333007812 23.2724609375 339.91796875 3.87890625 314.181640625 3.87890625 c 0
 286.254882812 3.87890625 279.272460938 24.82421875 279.272460938 108.606445312 c 0
 279.272460938 200.920898438 261.364257812 280.344726562 235.0546875 304.713867188 c 0
 214.109375 324.114257812 157.873046875 328.419921875 138.860351562 312.079101562 c 0
 91.9736328125 271.779296875 90.716796875 267.63671875 88.9169921875 147.393554688 c 0
 87.1748046875 31.0302734375 82.23046875 11.63671875 54.302734375 11.63671875 c 0
 46.5458984375 11.63671875 36.8916015625 15.9462890625 32.58203125 21.3330078125 c 0
 28.0224609375 27.0322265625 21.306640625 145.842773438 16.291015625 309.52734375 c 0
 8.732421875 556.217773438 9.0947265625 590.061523438 19.466796875 605.866210938 c 0
EndSplineSet
EndChar

StartChar: i
Encoding: 105 105 73
Width: 384
VWidth: 0
Flags: HW
LayerCount: 2
Fore
SplineSet
162.5625 263.7578125 m 0
 167.674804688 269.91796875 178.423828125 275.393554688 185.40625 275.393554688 c 0
 211.380859375 275.393554688 217.291015625 258.327148438 217.645507812 182.302734375 c 0
 217.833007812 141.963867188 220.778320312 94.2099609375 224.151367188 76.7998046875 c 0
 232.721679688 32.58203125 222.8984375 10.142578125 196.266601562 13.1015625 c 0
 178.889648438 15.0322265625 172.459960938 21.7216796875 164.116210938 46.5458984375 c 0
 150.297851562 87.66015625 149.153320312 247.59765625 162.5625 263.7578125 c 0
172.994140625 422.322265625 m 0
 223.41796875 440.979492188 263.328125 375.8125 224.969726562 337.454101562 c 0
 206.446289062 318.931640625 179.975585938 317.557617188 156.703125 333.911132812 c 0
 127.262695312 354.598632812 137.309570312 409.119140625 172.994140625 422.322265625 c 0
EndSplineSet
EndChar

StartChar: j
Encoding: 106 106 74
Width: 384
VWidth: 0
Flags: HW
LayerCount: 2
Fore
SplineSet
209.62109375 259.87890625 m 0
 222.041992188 282.981445312 255.036132812 279.272460938 264.8359375 253.672851562 c 0
 278.0078125 219.265625 268.750976562 -117.139648438 252.413085938 -197.818359375 c 0
 238.431640625 -266.860351562 211.497070312 -323.469726562 186.181640625 -337.021484375 c 0
 145.172851562 -358.97265625 65.306640625 -332.799804688 38.369140625 -288.58203125 c 0
 10.486328125 -242.8125 22.2080078125 -182.302734375 58.9580078125 -182.302734375 c 0
 79.4375 -182.302734375 93.0908203125 -205.576171875 93.0908203125 -240.484375 c 0
 93.0908203125 -261.430664062 129.864257812 -286.296875 149.721679688 -278.779296875 c 0
 184.005859375 -265.80078125 201.697265625 -146.618164062 201.697265625 71.3701171875 c 0
 201.697265625 176.096679688 204.845703125 250.99609375 209.62109375 259.87890625 c 0
186.9140625 425.890625 m 0
 229.751953125 480.377929688 322.739257812 408.048828125 284.65234375 349.866210938 c 0
 258.908203125 310.5390625 200.990234375 318.8359375 181.771484375 364.606445312 c 0
 167.439453125 398.739257812 167.663085938 401.404296875 186.9140625 425.890625 c 0
EndSplineSet
EndChar

StartChar: k
Encoding: 107 107 75
Width: 384
VWidth: 0
Flags: HW
LayerCount: 2
Fore
SplineSet
34.521484375 590.3515625 m 0
 43.0546875 596.477539062 51.677734375 601.211914062 54.302734375 601.211914062 c 0
 68.0517578125 601.211914062 84.9072265625 578.71484375 92.08203125 550.788085938 c 0
 104.439453125 502.690429688 118.340820312 330.076171875 112.825195312 293.236328125 c 0
 109.920898438 273.842773438 110.752929688 259.87890625 114.8125 259.87890625 c 0
 124.599609375 259.87890625 208.387695312 321.939453125 226.87890625 342.884765625 c 0
 234.674804688 351.715820312 251.208007812 378.181640625 262.981445312 400.678710938 c 0
 281.658203125 436.36328125 287.856445312 442.181640625 307.200195312 442.181640625 c 0
 326.969726562 442.181640625 329.982421875 439.079101562 332.047851562 416.58203125 c 0
 335.12109375 383.123046875 308.751953125 338.747070312 253.672851562 284.688476562 c 2
 211.005859375 242.8125 l 1
 247.423828125 196.266601562 l 2
 326.935546875 94.642578125 341.697265625 70.6484375 339.5390625 46.5458984375 c 0
 337.732421875 26.3759765625 334.403320312 23.2724609375 314.569335938 23.2724609375 c 0
 294.954101562 23.2724609375 286.420898438 31.0302734375 254.8359375 77.576171875 c 0
 234.306640625 107.830078125 203.043945312 148.712890625 184.2421875 169.890625 c 2
 150.497070312 207.903320312 l 1
 129.1640625 189.28515625 l 2
 110.877929688 173.326171875 107.201171875 162.909179688 103.427734375 116.36328125 c 0
 98.583984375 56.6298828125 84.9150390625 27.1513671875 62.060546875 27.1513671875 c 0
 44.994140625 27.1513671875 27.75 53.8271484375 33.978515625 70.59375 c 0
 36.201171875 76.5791015625 40.275390625 154.763671875 43.0546875 244.751953125 c 0
 47.3427734375 383.612304688 45.94921875 420.875976562 33.7451171875 493.76953125 c 0
 19.71875 577.551757812 19.736328125 579.736328125 34.521484375 590.3515625 c 0
EndSplineSet
EndChar

StartChar: l
Encoding: 108 108 76
Width: 384
VWidth: 0
Flags: HW
LayerCount: 2
Fore
SplineSet
108.036132812 588.024414062 m 0
 114.205078125 603.5390625 121.391601562 608.969726562 135.7578125 608.969726562 c 0
 162.825195312 608.969726562 170.7734375 584.920898438 171.142578125 501.915039062 c 0
 171.307617188 464.794921875 174.93359375 399.515625 179.200195312 356.848632812 c 0
 183.493164062 313.91796875 189.943359375 243.587890625 193.643554688 199.370117188 c 0
 200.655273438 115.587890625 210.778320312 92.6064453125 242.8125 87.744140625 c 0
 265.309570312 84.3291015625 277.543945312 61.8408203125 266.4921875 44.2177734375 c 0
 248.349609375 15.2880859375 197.213867188 25.599609375 158.780273438 65.939453125 c 0
 141.0078125 84.5927734375 137.098632812 97.357421875 131.103515625 156.315429688 c 0
 127.28125 193.89453125 120.639648438 258.327148438 116.4296875 298.666992188 c 0
 102.827148438 428.994140625 98.8818359375 565.000976562 108.036132812 588.024414062 c 0
EndSplineSet
EndChar

StartChar: m
Encoding: 109 109 77
Width: 384
VWidth: 0
Flags: HW
LayerCount: 2
Fore
SplineSet
26.2275390625 390.981445312 m 0
 34.408203125 404.196289062 68.142578125 401.06640625 76.396484375 386.327148438 c 0
 81.259765625 377.642578125 94.642578125 372.874023438 115.587890625 372.36328125 c 0
 134.981445312 371.890625 156.021484375 365.079101562 169.502929688 354.909179688 c 0
 190.448242188 339.108398438 192.306640625 338.924804688 204.799804688 351.41796875 c 0
 220.072265625 366.690429688 274.618164062 367.686523438 301.76953125 353.188476562 c 0
 311.646484375 347.9140625 328.443359375 324.266601562 339.393554688 300.217773438 c 0
 356.4609375 262.73828125 359.708007812 243.200195312 363.0546875 157.866210938 c 0
 366.309570312 74.8603515625 364.892578125 55.8388671875 354.243164062 39.5634765625 c 0
 340.538085938 18.6181640625 315.081054688 12.994140625 305.083984375 28.703125 c 0
 301.541992188 34.26953125 298.666992188 82.23046875 298.666992188 135.7578125 c 0
 298.666992188 216.436523438 296.060546875 237.940429688 283.151367188 263.7578125 c 0
 260.29296875 309.475585938 247.015625 307.200195312 228.837890625 254.448242188 c 0
 216.2734375 217.98828125 209.802734375 208.936523438 194.71484375 206.723632812 c 0
 172.194335938 203.420898438 155.151367188 222.642578125 155.151367188 251.345703125 c 0
 155.151367188 276.9453125 134.116210938 307.880859375 118.690429688 304.967773438 c 0
 98.5537109375 301.1640625 83.890625 231.951171875 81.693359375 130.327148438 c 0
 79.580078125 32.58203125 73.3779296875 11.63671875 46.5458984375 11.63671875 c 0
 15.814453125 11.63671875 13.5126953125 27.1513671875 17.310546875 208.678710938 c 0
 19.306640625 304.096679688 23.3271484375 386.295898438 26.2275390625 390.981445312 c 0
EndSplineSet
EndChar

StartChar: n
Encoding: 110 110 78
Width: 384
VWidth: 0
Flags: HW
LayerCount: 2
Fore
SplineSet
22.4970703125 372.522460938 m 0
 32.0771484375 382.052734375 66.6669921875 370.8125 73.115234375 356.072265625 c 0
 79.71484375 340.98828125 80.6787109375 340.934570312 107.830078125 354.133789062 c 0
 123.063476562 361.538085938 155.151367188 369.825195312 178.423828125 372.36328125 c 0
 217.98828125 376.6796875 223.85546875 375.186523438 259.103515625 351.83203125 c 0
 320.09375 311.420898438 347.885742188 230.400390625 348.655273438 90.763671875 c 0
 348.975585938 32.58203125 339.64453125 11.63671875 313.40625 11.63671875 c 0
 287.1875 11.63671875 279.272460938 36.4609375 279.272460938 118.690429688 c 0
 279.272460938 191.612304688 266.240234375 247.204101562 240.717773438 283.151367188 c 0
 226.948242188 302.545898438 218.763671875 306.423828125 191.612304688 306.423828125 c 0
 173.76953125 306.423828125 150.607421875 302.056640625 140.412109375 296.770507812 c 0
 110.668945312 281.34765625 93.1455078125 217.211914062 86.8828125 100.848632812 c 2
 81.4541015625 0 l 1
 60.5087890625 -2.3271484375 l 2
 46.5458984375 -3.87890625 37.146484375 0 32.310546875 9.3095703125 c 0
 24.251953125 24.82421875 15.0576171875 365.12109375 22.4970703125 372.522460938 c 0
EndSplineSet
EndChar

StartChar: o
Encoding: 111 111 79
Width: 384
VWidth: 0
Flags: HW
LayerCount: 2
Fore
SplineSet
172.217773438 382.557617188 m 0
 235.830078125 392.147460938 310.064453125 365.47265625 343.075195312 321.1640625 c 0
 363.508789062 293.735351562 371.224609375 174.545898438 355.077148438 135.7578125 c 0
 338.283203125 95.41796875 296.314453125 50.58203125 259.87890625 34.056640625 c 0
 221.866210938 16.81640625 144.682617188 15.10546875 107.0546875 30.6689453125 c 0
 75.248046875 43.82421875 25.85546875 96.0771484375 18.716796875 124.12109375 c 0
 12.591796875 148.185546875 20.609375 236.606445312 31.5205078125 265.309570312 c 0
 41.8408203125 292.4609375 81.4541015625 341.54296875 108.606445312 360.8203125 c 0
 120.673828125 369.387695312 148.9453125 379.048828125 172.217773438 382.557617188 c 0
265.309570312 301.84765625 m 0
 219.5390625 324.91015625 161.876953125 321.325195312 130.327148438 293.456054688 c 0
 108.09375 273.81640625 87.75 225.745117188 81.31640625 177.6484375 c 0
 76.439453125 141.1875 77.7890625 136.439453125 98.521484375 117.104492188 c 0
 157.317382812 62.2724609375 247.9765625 75.248046875 283.040039062 143.515625 c 0
 294.44140625 165.713867188 299.109375 255.224609375 290.119140625 279.272460938 c 0
 287.620117188 285.956054688 276.169921875 296.375 265.309570312 301.84765625 c 0
EndSplineSet
EndChar

StartChar: p
Encoding: 112 112 80
Width: 384
VWidth: 0
Flags: HW
LayerCount: 2
Fore
SplineSet
21.310546875 348.315429688 m 0
 32.3447265625 372.36328125 56.974609375 374.61328125 72.26953125 352.969726562 c 2
 83.7822265625 336.678710938 l 1
 110.157226562 352.836914062 l 2
 146.103515625 374.857421875 204.799804688 373.848632812 257.551757812 350.302734375 c 0
 330.8359375 317.591796875 350.900390625 277.721679688 351.854492188 162.909179688 c 0
 352.783203125 51.2001953125 335.543945312 23.845703125 249.018554688 -0.2744140625 c 0
 200.920898438 -13.6826171875 157.6640625 -11.453125 116.36328125 6.560546875 c 0
 106.217773438 10.986328125 105.020507812 -8.533203125 107.014648438 -145.842773438 c 0
 109.650390625 -327.370117188 103.275390625 -363.034179688 67.4912109375 -366.961914062 c 0
 54.302734375 -368.409179688 44.96484375 -365.23828125 42.2783203125 -358.400390625 c 0
 39.9267578125 -352.4140625 37.1416015625 -259.103515625 36.072265625 -150.497070312 c 0
 35.00390625 -41.890625 29.2587890625 109.913085938 23.2724609375 187.733398438 c 0
 14.978515625 295.563476562 14.5146484375 333.502929688 21.310546875 348.315429688 c 0
232.727539062 288.93359375 m 0
 189.28515625 310.944335938 157.0625 310.930664062 131.103515625 288.889648438 c 0
 94.3271484375 257.665039062 87.6220703125 238.157226562 91.26171875 172.994140625 c 0
 94.5556640625 114.036132812 95.41796875 111.790039062 124.896484375 85.3818359375 c 0
 158.295898438 55.4619140625 186.958007812 51.0517578125 242.036132812 67.3583984375 c 0
 279.600585938 78.4794921875 286.911132812 94.642578125 286.307617188 165.236328125 c 0
 285.658203125 241.260742188 274.083984375 267.979492188 232.727539062 288.93359375 c 0
EndSplineSet
EndChar

StartChar: q
Encoding: 113 113 81
Width: 384
VWidth: 0
Flags: HW
LayerCount: 2
Fore
SplineSet
96.9697265625 362.2109375 m 0
 137.826171875 394.67578125 148.169921875 396.346679688 209.454101562 380.377929688 c 0
 235.830078125 373.505859375 255.083007812 372.162109375 259.87890625 376.860351562 c 0
 272.844726562 389.561523438 301.78125 384.775390625 310.516601562 368.484375 c 0
 316.015625 358.23046875 319.099609375 246.302734375 319.612304688 38.400390625 c 2
 320.387695312 -276.169921875 l 1
 342.109375 -291.640625 l 2
 376.552734375 -316.171875 367.708984375 -352.969726562 327.370117188 -352.969726562 c 0
 300.49609375 -352.969726562 280.82421875 -339.782226562 266.0390625 -311.854492188 c 0
 254.702148438 -290.439453125 253.163085938 -264.920898438 254.8359375 -126.060546875 c 2
 256.775390625 34.9091796875 l 1
 229.624023438 23.51171875 l 2
 181.52734375 3.3232421875 85.4091796875 30.5966796875 41.8232421875 76.7998046875 c 0
 -18.673828125 140.931640625 10.8603515625 293.787109375 96.9697265625 362.2109375 c 0
229.236328125 303.321289062 m 0
 218.733398438 310.180664062 197.041992188 317.294921875 180.751953125 319.224609375 c 0
 156.703125 322.072265625 146.842773438 318.751953125 127.224609375 301.198242188 c 0
 96.9619140625 274.122070312 77.576171875 224.969726562 77.576171875 175.321289062 c 0
 77.576171875 129.944335938 86.884765625 117.080078125 134.206054688 97.0595703125 c 0
 176.873046875 79.0078125 204.108398438 76.8837890625 214.94140625 90.763671875 c 0
 232.616210938 113.41015625 248.2421875 180.751953125 248.2421875 234.278320312 c 0
 248.2421875 286.254882812 246.680664062 291.9296875 229.236328125 303.321289062 c 0
EndSplineSet
EndChar

StartChar: r
Encoding: 114 114 82
Width: 384
VWidth: 0
Flags: HW
LayerCount: 2
Fore
SplineSet
24.111328125 362.278320312 m 0
 36.64453125 385.899414062 71.6640625 377.793945312 81.091796875 349.090820312 c 0
 91.5390625 317.28515625 91.5390625 317.28515625 110.93359375 335.440429688 c 0
 120.271484375 344.18359375 146.618164062 357.482421875 169.115234375 364.809570312 c 0
 233.502929688 385.782226562 281.984375 371.333984375 320.775390625 319.612304688 c 0
 333.576171875 302.545898438 334.577148438 296.458984375 327.283203125 280.048828125 c 0
 314.94140625 252.278320312 286.98046875 253.672851562 265.048828125 283.151367188 c 0
 243.985351562 311.461914062 208.678710938 314.249023438 163.684570312 291.15234375 c 0
 116.9375 267.155273438 116.383789062 265.309570312 117.994140625 138.860351562 c 0
 118.8046875 75.248046875 116.916015625 19.0869140625 113.793945312 13.9638671875 c 0
 104.122070312 -1.9072265625 71.1015625 2.3271484375 59.3544921875 20.9453125 c 0
 52.48046875 31.8408203125 46.1337890625 72.9208984375 43.0546875 126.448242188 c 0
 40.2880859375 174.545898438 33.1103515625 244.219726562 27.1513671875 280.82421875 c 0
 19.57421875 327.370117188 18.6552734375 351.995117188 24.111328125 362.278320312 c 0
EndSplineSet
EndChar

StartChar: s
Encoding: 115 115 83
Width: 384
VWidth: 0
Flags: HW
LayerCount: 2
Fore
SplineSet
155.151367188 390.55078125 m 0
 220.315429688 409.0859375 276.802734375 394.942382812 327.370117188 347.4296875 c 0
 352.969726562 323.375976562 354.954101562 302.659179688 332.799804688 290.73046875 c 0
 320.194335938 283.942382812 312.629882812 285.344726562 292.4609375 298.211914062 c 0
 238.157226562 332.853515625 219.797851562 337.907226562 182.302734375 328.533203125 c 0
 156.703125 322.133789062 143.711914062 313.912109375 136.3359375 299.442382812 c 0
 116.170898438 259.888671875 146.618164062 227.3359375 228.848632812 200.533203125 c 0
 299.442382812 177.5234375 340.571289062 120.448242188 325.838867188 65.939453125 c 0
 315.565429688 27.927734375 302.114257812 14.1728515625 265.309570312 4.0419921875 c 0
 193.939453125 -15.6005859375 109.96484375 8.7412109375 62.4794921875 62.8359375 c 0
 11.40625 121.018554688 52.0595703125 163.759765625 107.830078125 110.517578125 c 0
 148.9453125 71.2666015625 186.490234375 55.7763671875 224.969726562 62.189453125 c 0
 242.8125 65.1640625 258.62109375 72.2587890625 260.979492188 78.3515625 c 0
 269.00390625 99.0810546875 242.036132812 126.484375 200.145507812 140.168945312 c 0
 177.6484375 147.517578125 153.41015625 158.342773438 146.618164062 164.072265625 c 0
 139.63671875 169.963867188 130.8125 174.545898438 126.448242188 174.545898438 c 0
 113.516601562 174.545898438 79.798828125 216.436523438 69.62890625 245.139648438 c 0
 63.8564453125 261.430664062 61.8486328125 284.379882812 64.810546875 300.217773438 c 0
 70.9375 332.986328125 117.915039062 379.958984375 155.151367188 390.55078125 c 0
EndSplineSet
EndChar

StartChar: t
Encoding: 116 116 84
Width: 384
VWidth: 0
Flags: HW
LayerCount: 2
Fore
SplineSet
102.266601562 603.5390625 m 0
 110.387695312 619.0546875 135.931640625 621.381835938 144.838867188 607.41796875 c 0
 148.396484375 601.841796875 151.272460938 546.521484375 151.272460938 483.684570312 c 0
 151.272460938 420.848632812 154.220703125 367.087890625 157.866210938 363.442382812 c 0
 161.543945312 359.764648438 182.302734375 357.830078125 204.799804688 359.067382812 c 0
 313.40625 365.040039062 320.12109375 364.584960938 329.036132812 350.642578125 c 0
 342.84765625 329.0390625 325.818359375 312.459960938 278.497070312 301.440429688 c 0
 255.224609375 296.020507812 217.98828125 291.512695312 194.71484375 291.296875 c 2
 152.82421875 290.909179688 l 1
 157.869140625 212.557617188 l 2
 163.6640625 122.569335938 176.749023438 83.736328125 203.248046875 77.8798828125 c 0
 305.6484375 55.25 306.444335938 54.9091796875 309.102539062 32.58203125 c 0
 312.55078125 3.615234375 287.030273438 -5.65625 229.624023438 3.7080078125 c 0
 123.837890625 20.9638671875 94.009765625 67.4912109375 88.7685546875 223.41796875 c 2
 86.109375 302.545898438 l 1
 54.302734375 307.899414062 l 2
 13.1875 314.819335938 7.7578125 318.719726562 7.7578125 341.333007812 c 0
 7.7578125 364.240234375 31.8056640625 379.012695312 62.060546875 374.690429688 c 2
 83.7822265625 371.587890625 l 1
 79.4853515625 427.442382812 l 2
 75.30859375 481.745117188 87.38671875 575.112304688 102.266601562 603.5390625 c 0
EndSplineSet
EndChar

StartChar: u
Encoding: 117 117 85
Width: 384
VWidth: 0
Flags: HW
LayerCount: 2
Fore
SplineSet
316.508789062 366.467773438 m 0
 332.979492188 379.232421875 337.201171875 378.569335938 353.104492188 360.727539062 c 0
 364.782226562 347.625976562 366.873046875 331.63671875 366.545898438 257.939453125 c 0
 366.18359375 176.484375 364.57421875 167.3046875 342.411132812 120.2421875 c 0
 311.723632812 55.0791015625 291.481445312 31.8681640625 248.2421875 12.2626953125 c 0
 204.799804688 -7.4345703125 153.513671875 -7.970703125 112.484375 10.84375 c 0
 49.1513671875 39.8857421875 35.7333984375 72.1455078125 22.7763671875 226.521484375 c 0
 12.29296875 351.41796875 15.150390625 368.484375 46.5458984375 368.484375 c 0
 69.1416015625 368.484375 75.802734375 352.194335938 81.4384765625 283.151367188 c 0
 91.19140625 163.684570312 105.663085938 94.6904296875 124.12109375 79.6630859375 c 0
 151.272460938 57.556640625 216.013671875 60.986328125 242.8125 85.94921875 c 0
 286.188476562 126.354492188 297.926757812 162.133789062 301.146484375 263.7578125 c 0
 303.482421875 337.454101562 306.682617188 358.852539062 316.508789062 366.467773438 c 0
EndSplineSet
EndChar

StartChar: v
Encoding: 118 118 86
Width: 384
VWidth: 0
Flags: HW
LayerCount: 2
Fore
SplineSet
289.302734375 374.690429688 m 0
 293.509765625 380.12109375 306.423828125 383.717773438 317.28515625 382.483398438 c 0
 349.096679688 378.869140625 348.022460938 343.66015625 314.110351562 278.497070312 c 0
 298.856445312 249.184570312 273.971679688 195.491210938 259.103515625 159.805664062 c 0
 244.234375 124.12109375 223.177734375 77.4462890625 212.557617188 56.6298828125 c 0
 195.934570312 24.048828125 190.2265625 18.9501953125 172.606445312 20.9453125 c 0
 159.41796875 22.4384765625 148.646484375 30.2255859375 142.559570312 42.6669921875 c 0
 13.1337890625 307.200195312 -1.97265625 351.016601562 30.2548828125 368.397460938 c 0
 55.3642578125 381.940429688 67.9013671875 370.036132812 89.8056640625 311.854492188 c 0
 117.841796875 237.381835938 171.72265625 133.588867188 178.400390625 141.1875 c 0
 181.400390625 144.6015625 191.965820312 168.33984375 201.87890625 193.939453125 c 0
 221.404296875 244.36328125 276.357421875 357.978515625 289.302734375 374.690429688 c 0
EndSplineSet
EndChar

StartChar: w
Encoding: 119 119 87
Width: 384
VWidth: 0
Flags: HW
LayerCount: 2
Fore
SplineSet
17.892578125 356.072265625 m 0
 20.470703125 363.0234375 31.0302734375 368.484375 41.890625 368.484375 c 0
 65.6806640625 368.484375 81.1162109375 342.109375 88.197265625 289.357421875 c 0
 90.9111328125 269.135742188 99.1376953125 232.33984375 106.666992188 206.739257812 c 2
 120.2421875 160.58203125 l 1
 139.842773438 197.041992188 l 2
 172.926757812 258.5859375 208.373046875 248.2421875 235.547851562 169.115234375 c 2
 245.139648438 141.1875 l 1
 261.818359375 210.23046875 l 2
 271.000976562 248.2421875 280.752929688 291.475585938 283.516601562 306.423828125 c 0
 291.547851562 349.866210938 307.716796875 370.166015625 332.024414062 367.321289062 c 0
 365.21484375 363.4375 364.631835938 347.5390625 325.526367188 190.060546875 c 0
 317.62890625 158.254882812 308.774414062 114.294921875 305.99609375 93.0908203125 c 0
 299.490234375 43.4423828125 284.188476562 19.3935546875 259.103515625 19.3935546875 c 0
 243.783203125 19.3935546875 233.678710938 29.0908203125 211.005859375 65.5517578125 c 0
 195.086914062 91.1513671875 179.884765625 111.881835938 176.873046875 112.096679688 c 0
 173.873046875 112.311523438 161.719726562 94.2548828125 149.721679688 71.7578125 c 0
 133.171875 40.7275390625 123.197265625 30.4814453125 107.830078125 28.7255859375 c 0
 80.9833984375 25.6572265625 71.107421875 39.5634765625 61.568359375 93.8662109375 c 0
 57.087890625 119.3671875 47.0244140625 163.684570312 38.8447265625 193.939453125 c 0
 22.064453125 256 11.3955078125 338.55859375 17.892578125 356.072265625 c 0
EndSplineSet
EndChar

StartChar: x
Encoding: 120 120 88
Width: 384
VWidth: 0
Flags: HW
LayerCount: 2
Fore
SplineSet
29.478515625 375.663085938 m 0
 50.2783203125 387.673828125 54.7060546875 385.551757812 88.1572265625 347.5390625 c 0
 105.982421875 327.283203125 137.654296875 292.4609375 159.41796875 269.1875 c 2
 198.59375 227.296875 l 1
 242.036132812 281.599609375 l 2
 266.240234375 311.854492188 291.1640625 344.4921875 298.317382812 355.296875 c 0
 314.75 380.12109375 330.439453125 386.365234375 349.866210938 375.811523438 c 0
 375.572265625 361.84765625 366.706054688 334.3515625 316.236328125 271.515625 c 0
 289.444335938 238.157226562 261.71875 203.522460938 254.448242188 194.327148438 c 0
 241.6171875 178.099609375 242.8125 176.096679688 298.666992188 120.2421875 c 0
 359.17578125 59.7333984375 369.842773438 34.5185546875 341.333007812 19.384765625 c 0
 319.90625 8.009765625 306.977539062 16.291015625 246.856445312 79.9033203125 c 2
 196.266601562 133.430664062 l 1
 141.1875 80.6787109375 l 2
 110.93359375 51.7021484375 76.6689453125 25.55859375 65.1640625 22.671875 c 0
 20.9453125 11.578125 -1.265625 54.8857421875 36.4609375 78.638671875 c 0
 48.27734375 86.0791015625 80.291015625 111.416992188 106.666992188 134.206054688 c 2
 155.151367188 176.096679688 l 1
 85.193359375 256 l 2
 15.2353515625 335.903320312 3.6640625 360.755859375 29.478515625 375.663085938 c 0
EndSplineSet
EndChar

StartChar: y
Encoding: 121 121 89
Width: 384
VWidth: 0
Flags: HW
LayerCount: 2
Fore
SplineSet
287.041015625 368.484375 m 0
 296.03515625 385.551757812 327.698242188 388.809570312 339.8125 373.915039062 c 0
 347.830078125 364.05859375 357.454101562 108.606445312 357.9921875 -108.606445312 c 0
 358.333007812 -245.915039062 349.5625 -281.326171875 304.873046875 -323.098632812 c 0
 232.727539062 -390.532226562 112.630859375 -393.64453125 50.2109375 -329.697265625 c 0
 3.2626953125 -281.599609375 4.9228515625 -201.455078125 52.751953125 -207.08203125 c 0
 69.6376953125 -209.068359375 74.224609375 -214.884765625 80.9267578125 -242.8125 c 0
 91.9052734375 -288.555664062 115.587890625 -306.423828125 165.236328125 -306.423828125 c 0
 214.884765625 -306.423828125 254.876953125 -287.099609375 274.403320312 -253.672851562 c 0
 287.572265625 -231.12890625 289.450195312 -210.618164062 290.133789062 -81.8427734375 c 2
 290.909179688 64.3876953125 l 1
 256.775390625 40.8388671875 l 2
 214.28125 11.5205078125 166.01171875 6.37890625 121.018554688 26.3759765625 c 0
 66.5048828125 50.6044921875 55.0546875 69.818359375 34.5703125 171.442382812 c 0
 10.6455078125 290.133789062 9.4501953125 356.540039062 31.0302734375 368.109375 c 0
 61.21875 384.29296875 75.6318359375 366.93359375 80.3134765625 308.751953125 c 0
 82.623046875 280.048828125 88.2705078125 240.0859375 92.703125 221.090820312 c 0
 97.19140625 201.85546875 103.8828125 169.115234375 107.606445312 148.169921875 c 0
 115.880859375 101.624023438 137.291015625 81.4541015625 178.423828125 81.4541015625 c 0
 243.563476562 81.4541015625 279.272460938 152.048828125 279.272460938 280.82421875 c 0
 279.272460938 321.1640625 282.743164062 360.331054688 287.041015625 368.484375 c 0
EndSplineSet
EndChar

StartChar: z
Encoding: 122 122 90
Width: 384
VWidth: 0
Flags: HW
LayerCount: 2
Fore
SplineSet
303.321289062 375.862304688 m 0
 326.59375 385.083007812 325.256835938 385.081054688 342.109375 375.931640625 c 0
 363.76171875 364.177734375 360.451171875 328.920898438 334.416992188 294.01171875 c 0
 322.056640625 277.4375 272.91796875 223.41796875 225.745117188 174.545898438 c 0
 178.572265625 125.672851562 139.63671875 84.10546875 139.63671875 82.6181640625 c 0
 139.63671875 81.09765625 148.169921875 81.951171875 159.030273438 84.5576171875 c 0
 169.743164062 87.12890625 214.884765625 89.515625 259.87890625 89.890625 c 0
 344.436523438 90.595703125 364.606445312 84.48828125 364.606445312 58.181640625 c 0
 364.606445312 33.4541015625 342.884765625 24.08203125 290.133789062 26.0478515625 c 0
 262.41015625 27.0810546875 195.87890625 24.0859375 142.3515625 19.3935546875 c 0
 68.654296875 12.9345703125 42.3544921875 13.09375 34.1337890625 20.05078125 c 0
 8.5966796875 41.658203125 22.4970703125 62.8359375 138.084960938 178.423828125 c 0
 269.865234375 310.205078125 269.963867188 304.833984375 135.7578125 305.802734375 c 0
 71.3701171875 306.267578125 45.34375 309.4375 32.58203125 318.37109375 c 0
 12.412109375 332.489257812 10.9423828125 346.845703125 27.927734375 363.830078125 c 0
 37.72265625 373.625 58.9580078125 374.9140625 162.133789062 371.975585938 c 0
 231.951171875 369.987304688 292.715820312 371.66015625 303.321289062 375.862304688 c 0
EndSplineSet
EndChar

StartChar: braceleft
Encoding: 123 123 91
Width: 384
VWidth: 0
Flags: HW
LayerCount: 2
Fore
SplineSet
174.545898438 595.259765625 m 0
 196.266601562 607.28125 216.064453125 616.77734375 219.5390625 616.83984375 c 0
 237.381835938 617.1640625 256 598.884765625 256 581.041992188 c 0
 256 565.52734375 249.018554688 558.545898438 221.090820312 546.133789062 c 0
 193.1640625 533.721679688 186.181640625 526.739257812 186.181640625 511.224609375 c 0
 186.181640625 479.41796875 207.815429688 446.934570312 237.381835938 434.34765625 c 0
 260.654296875 424.439453125 264.201171875 419.795898438 262.206054688 401.842773438 c 0
 260.344726562 385.0859375 253.672851562 378.736328125 228.848632812 370.095703125 c 0
 155.151367188 344.44140625 139.50390625 335.508789062 148.5703125 324.266601562 c 0
 153.088867188 318.6640625 175.321289062 305.475585938 198.59375 294.592773438 c 0
 250.569335938 270.287109375 252.869140625 252.303710938 209.454101562 209.670898438 c 0
 183.854492188 184.532226562 178.423828125 174.041015625 178.423828125 149.721679688 c 0
 178.423828125 118.229492188 195.491210938 101.415039062 243.587890625 85.5224609375 c 0
 261.430664062 79.6259765625 268.252929688 72.1708984375 270.026367188 56.6298828125 c 0
 274.978515625 13.2275390625 214.884765625 12.3095703125 159.030273438 54.935546875 c 0
 104.31640625 96.69140625 93.662109375 152.048828125 128.842773438 211.782226562 c 0
 139.807617188 230.400390625 147.7109375 246.620117188 146.23046875 247.466796875 c 0
 144.75390625 248.310546875 123.345703125 264.17578125 99.296875 282.249023438 c 0
 36.783203125 329.229492188 41.115234375 358.08984375 116.36328125 395.942382812 c 0
 131.103515625 403.356445312 144.579101562 410.309570312 145.842773438 411.151367188 c 0
 147.129882812 412.009765625 141.1875 428.994140625 132.543945312 449.1640625 c 0
 102.2890625 519.7578125 114.430664062 561.98828125 174.545898438 595.259765625 c 0
EndSplineSet
EndChar

StartChar: bar
Encoding: 124 124 92
Width: 384
VWidth: 0
Flags: HW
LayerCount: 2
Fore
SplineSet
135.883789062 608.969726562 m 0
 138.885742188 613.799804688 150.109375 616.493164062 161.745117188 615.17578125 c 0
 177.975585938 613.338867188 184.333984375 606.642578125 191.94921875 583.370117188 c 0
 203.880859375 546.909179688 218.79296875 60.791015625 208.583984375 41.115234375 c 0
 197.254882812 19.2822265625 163.734375 24.048828125 154.030273438 48.873046875 c 0
 149.423828125 60.6572265625 144.485351562 152.436523438 142.739257812 258.71484375 c 0
 141.032226562 362.666992188 137.905273438 450.403320312 135.786132812 453.818359375 c 0
 129.530273438 463.903320312 129.614257812 598.884765625 135.883789062 608.969726562 c 0
EndSplineSet
EndChar

StartChar: braceright
Encoding: 125 125 93
Width: 384
VWidth: 0
Flags: HW
LayerCount: 2
Fore
SplineSet
149.721679688 609.275390625 m 0
 169.997070312 617.577148438 198.59375 612.8984375 222.642578125 597.34375 c 0
 256 575.768554688 277.888671875 451.864257812 252.12109375 430.47265625 c 0
 235.342773438 416.54296875 238.157226562 409.053710938 262.206054688 403.634765625 c 0
 274.053710938 400.96484375 295.563476562 391.690429688 309.52734375 383.231445312 c 0
 341.83984375 363.657226562 340.557617188 333.622070312 306.423828125 310.565429688 c 0
 243.587890625 268.119140625 246.602539062 272.78125 260.594726562 239.708984375 c 0
 269.651367188 218.301757812 272.323242188 192.387695312 270.3515625 145.06640625 c 0
 267.733398438 82.23046875 266.708007812 79.0859375 241.6484375 57.0185546875 c 0
 221.000976562 38.8359375 209.842773438 34.611328125 187.345703125 36.4609375 c 0
 161.745117188 38.564453125 159.030273438 40.982421875 159.030273438 61.6728515625 c 0
 159.030273438 77.9638671875 164.39453125 87.318359375 177.6484375 94.140625 c 0
 205.4609375 108.456054688 210.4609375 123.345703125 204.651367188 174.545898438 c 0
 199.986328125 215.66015625 196.337890625 223.3984375 173.381835938 240.873046875 c 0
 159.41796875 251.501953125 147.393554688 267.115234375 147.393554688 274.618164062 c 0
 147.393554688 292.573242188 168.33984375 311.623046875 195.491210938 318.36328125 c 0
 238.983398438 329.159179688 235.830078125 341.765625 184.629882812 361.786132812 c 0
 140.412109375 379.077148438 135.7578125 383.076171875 135.7578125 403.782226562 c 0
 135.7578125 422.336914062 141.1875 429.600585938 164.4609375 442.172851562 c 0
 199.904296875 461.321289062 202.278320312 467.005859375 192 508.12109375 c 0
 185.40625 534.497070312 178.831054688 542.822265625 157.478515625 551.830078125 c 0
 125.672851562 565.248046875 121.298828125 597.637695312 149.721679688 609.275390625 c 0
EndSplineSet
EndChar

StartChar: asciitilde
Encoding: 126 126 94
Width: 384
VWidth: 0
Flags: HW
LayerCount: 2
Fore
SplineSet
93.0908203125 401.477539062 m 0
 103.951171875 403.418945312 114.874023438 405.435546875 117.915039062 406.059570312 c 0
 133.010742188 409.15625 164.336914062 388.654296875 197.849609375 353.745117188 c 0
 218.701171875 332.024414062 240.028320312 314.181640625 245.139648438 314.181640625 c 0
 250.294921875 314.181640625 263.447265625 325.430664062 274.618164062 339.393554688 c 0
 285.7890625 353.357421875 298.236328125 368.759765625 302.516601562 373.915039062 c 0
 314.618164062 388.493164062 339.733398438 385.551757812 348.8828125 368.484375 c 0
 360.262695312 347.256835938 342.884765625 308.228515625 309.52734375 280.095703125 c 0
 253.87109375 233.15625 225.745117188 236.194335938 164.4609375 295.767578125 c 0
 108.606445312 350.061523438 98.412109375 349.953125 72.7197265625 294.788085938 c 0
 57.5439453125 262.206054688 38.1533203125 252.46484375 19.3935546875 268 c 0
 -14.19140625 295.8125 38.7880859375 391.765625 93.0908203125 401.477539062 c 0
EndSplineSet
EndChar
